<?xml version="1.0" standalone="no"?>
<!DOCTYPE svg PUBLIC "-//W3C//DTD SVG 20010904//EN"
 "http://www.w3.org/TR/2001/REC-SVG-20010904/DTD/svg10.dtd">
<svg version="1.0" xmlns="http://www.w3.org/2000/svg"
 width="1280.000000pt" height="800.000000pt" viewBox="0 0 1280.000000 800.000000"
 preserveAspectRatio="xMidYMid meet">
<g transform="translate(0.000000,800.000000) scale(0.100000,-0.100000)"
fill="#000000" stroke="none">
<path d="M3 7951 c1 -37 7 -56 17 -61 8 -3 44 -21 80 -40 66 -33 70 -25 7 14
-18 12 -48 30 -66 41 -22 14 -30 26 -27 40 2 11 0 29 -5 40 -6 14 -8 4 -6 -34z"/>
<path d="M566 7977 c-3 -14 -4 -31 -1 -39 3 -8 -25 -32 -74 -63 -44 -27 -78
-51 -77 -53 2 -1 38 16 81 39 87 45 73 46 188 -13 73 -37 75 -28 2 13 -30 17
-55 35 -55 39 0 5 -9 12 -20 15 -13 4 -20 15 -20 33 0 41 -16 60 -24 29z"/>
<path d="M1146 7985 c-3 -9 -6 -28 -6 -42 0 -16 -7 -27 -20 -30 -11 -3 -20 -9
-20 -13 0 -5 -25 -23 -55 -40 -107 -61 -48 -40 89 32 20 11 18 11 126 -41 69
-33 65 -30 -31 32 -48 31 -59 44 -59 65 0 37 -15 60 -24 37z"/>
<path d="M1727 7986 c-4 -10 -7 -29 -7 -42 0 -13 -4 -24 -10 -24 -5 0 -18 -8
-28 -18 -9 -9 -39 -30 -65 -45 -66 -39 -59 -44 11 -9 114 59 100 58 187 12 85
-45 114 -50 38 -6 -87 50 -112 70 -107 87 2 9 1 26 -4 39 -8 20 -9 21 -15 6z"/>
<path d="M2298 7985 c0 -11 0 -29 0 -40 2 -19 -4 -25 -95 -81 -59 -37 -60 -48
-2 -16 31 18 63 32 72 32 8 0 17 6 20 13 4 13 14 10 120 -45 95 -49 73 -29
-69 62 -15 10 -22 23 -22 43 1 33 -21 63 -24 32z"/>
<path d="M2876 7977 c-3 -14 -4 -31 -1 -39 3 -8 -25 -32 -74 -63 -44 -27 -78
-52 -76 -54 2 -2 27 11 55 28 28 17 56 31 63 31 7 0 18 5 25 12 13 13 20 10
125 -44 73 -37 75 -28 2 13 -30 17 -55 35 -55 39 0 5 -9 12 -20 15 -13 4 -20
15 -20 33 0 41 -16 60 -24 29z"/>
<path d="M3457 7986 c-4 -10 -7 -29 -7 -43 0 -16 -7 -27 -20 -30 -11 -3 -20
-9 -20 -13 0 -5 -25 -22 -55 -39 -73 -41 -71 -50 3 -13 104 54 111 57 124 44
7 -7 18 -12 25 -12 6 0 35 -14 64 -30 28 -17 53 -29 56 -27 2 3 -18 17 -44 32
-74 43 -112 75 -107 89 3 7 1 23 -4 36 -8 20 -9 21 -15 6z"/>
<path d="M4037 7994 c-4 -4 -7 -22 -7 -41 0 -18 -4 -33 -10 -33 -5 0 -18 -8
-28 -18 -9 -9 -39 -30 -65 -45 -66 -39 -59 -44 11 -9 105 55 115 58 119 45 3
-7 12 -13 20 -13 9 0 40 -14 70 -31 30 -17 56 -29 59 -27 2 3 -17 17 -43 32
-93 54 -113 70 -109 91 5 24 -7 59 -17 49z"/>
<path d="M4608 7983 c0 -10 -1 -27 0 -38 1 -21 -23 -41 -111 -91 -26 -15 -45
-29 -43 -32 3 -2 29 10 59 27 30 17 61 31 70 31 8 0 17 6 20 13 4 13 14 10
120 -45 69 -35 76 -30 10 9 -26 15 -56 36 -65 45 -10 10 -22 18 -28 18 -5 0
-10 15 -10 34 0 36 -19 61 -22 29z"/>
<path d="M5186 7975 c-4 -14 -4 -30 -1 -34 6 -10 -39 -46 -108 -86 -26 -15
-46 -29 -44 -32 3 -2 28 10 56 27 29 16 58 30 64 30 7 0 18 5 25 12 13 13 20
10 125 -44 73 -37 75 -28 2 13 -30 17 -55 34 -55 39 0 4 -9 10 -20 13 -14 4
-20 14 -20 34 0 42 -16 61 -24 28z"/>
<path d="M5767 7986 c-4 -10 -7 -29 -7 -43 0 -16 -7 -27 -20 -30 -11 -3 -20
-9 -20 -13 0 -5 -25 -22 -55 -39 -73 -41 -71 -50 3 -13 104 54 111 57 124 44
7 -7 18 -12 25 -12 7 0 35 -14 63 -31 28 -17 53 -30 55 -27 2 2 -32 26 -75 53
-57 36 -78 55 -74 66 2 9 1 26 -4 39 -8 20 -9 21 -15 6z"/>
<path d="M6347 7994 c-4 -4 -7 -21 -7 -38 0 -22 -7 -36 -24 -46 -86 -55 -126
-82 -126 -87 0 -2 26 9 58 25 105 55 115 58 119 45 3 -7 12 -13 20 -13 9 0 41
-14 72 -32 58 -32 57 -21 -2 16 -18 12 -48 30 -66 41 -22 14 -30 26 -27 40 5
24 -7 59 -17 49z"/>
<path d="M6916 7977 c-3 -14 -4 -31 -1 -39 4 -13 -25 -36 -108 -84 -76 -44
-47 -39 38 6 87 46 73 47 188 -12 69 -35 76 -30 10 9 -26 15 -56 36 -65 45
-10 10 -22 18 -28 18 -5 0 -10 12 -10 28 0 41 -16 60 -24 29z"/>
<path d="M7495 7979 c-3 -14 -5 -31 -3 -38 2 -8 -25 -32 -58 -55 -34 -22 -70
-47 -80 -54 -16 -11 75 31 130 60 20 11 28 8 129 -44 73 -37 74 -29 2 12 -30
17 -55 35 -55 40 0 4 -9 10 -20 13 -14 4 -20 14 -20 34 0 15 -4 35 -9 42 -8
12 -11 10 -16 -10z"/>
<path d="M8077 7986 c-4 -10 -7 -28 -7 -41 0 -15 -7 -26 -20 -30 -11 -3 -20
-10 -20 -15 0 -4 -25 -22 -55 -39 -73 -41 -71 -50 3 -13 114 59 100 58 187 13
43 -23 79 -40 81 -39 1 2 -33 26 -77 53 -56 36 -77 55 -73 66 2 9 1 26 -4 39
-8 20 -9 21 -15 6z"/>
<path d="M9226 7977 c-3 -14 -4 -31 -1 -39 3 -8 -25 -32 -74 -63 -44 -27 -78
-51 -77 -53 2 -1 38 16 81 39 87 45 73 46 188 -13 69 -35 76 -30 10 9 -26 15
-56 36 -65 45 -10 10 -22 18 -28 18 -5 0 -10 12 -10 28 0 41 -16 60 -24 29z"/>
<path d="M9806 7985 c-3 -9 -6 -28 -6 -42 0 -16 -7 -27 -20 -30 -11 -3 -20 -9
-20 -13 0 -5 -25 -23 -55 -40 -107 -61 -48 -40 89 32 20 11 18 11 126 -41 69
-33 65 -30 -31 32 -48 31 -59 44 -59 65 0 37 -15 60 -24 37z"/>
<path d="M10387 7986 c-4 -10 -7 -28 -7 -41 0 -15 -7 -26 -20 -30 -11 -3 -20
-10 -20 -15 0 -4 -25 -22 -55 -39 -73 -41 -71 -50 3 -13 114 59 100 58 187 13
43 -23 79 -40 81 -39 1 2 -33 26 -77 53 -56 36 -77 55 -73 66 2 9 1 26 -4 39
-8 20 -9 21 -15 6z"/>
<path d="M10958 7985 c0 -11 0 -29 0 -40 2 -19 -4 -25 -95 -81 -63 -39 -59
-47 7 -14 99 51 99 51 118 42 9 -5 45 -23 80 -41 100 -52 81 -34 -64 59 -15
10 -22 23 -22 43 1 33 -21 63 -24 32z"/>
<path d="M11536 7977 c-3 -14 -4 -31 -1 -39 3 -8 -25 -32 -74 -63 -44 -27 -78
-51 -77 -53 2 -1 38 16 81 39 87 45 73 46 188 -13 73 -37 75 -28 2 13 -30 17
-55 35 -55 39 0 5 -9 12 -20 15 -13 4 -20 15 -20 33 0 41 -16 60 -24 29z"/>
<path d="M12116 7985 c-3 -9 -6 -28 -6 -42 0 -16 -7 -27 -20 -30 -11 -3 -20
-9 -20 -13 0 -5 -25 -23 -55 -40 -75 -43 -70 -49 8 -9 34 18 70 36 81 41 20
11 18 11 126 -41 68 -33 66 -31 -34 35 -47 32 -60 45 -58 62 2 12 -1 29 -6 38
-8 15 -10 15 -16 -1z"/>
<path d="M12697 7994 c-4 -4 -7 -22 -7 -41 0 -18 -4 -33 -10 -33 -5 0 -18 -8
-28 -18 -9 -9 -39 -30 -65 -45 -66 -39 -59 -44 11 -9 98 51 113 57 120 47 8
-11 74 -37 79 -31 2 2 -16 17 -41 32 -34 22 -45 34 -42 49 5 24 -7 59 -17 49z"/>
<path d="M8649 7973 c-1 -10 -1 -25 0 -33 1 -8 -13 -24 -31 -35 -17 -11 -47
-29 -65 -41 -63 -39 -59 -47 7 -14 36 18 73 37 83 42 18 9 18 9 117 -42 66
-33 70 -25 7 14 -18 12 -48 30 -66 41 -22 14 -30 26 -27 38 5 22 -2 47 -15 47
-5 0 -10 -8 -10 -17z"/>
<path d="M860 7540 c-2 -41 -4 -83 -4 -93 -2 -21 -29 -44 -104 -88 -29 -17
-51 -33 -49 -36 3 -2 28 10 56 27 29 16 58 30 64 30 7 0 18 5 25 12 13 13 20
10 125 -44 73 -37 75 -28 2 13 -30 17 -55 34 -55 39 0 4 -9 10 -19 13 -15 4
-20 17 -25 68 -3 35 -8 80 -9 99 -2 19 -5 1 -7 -40z"/>
<path d="M7790 7563 c0 -91 -11 -145 -32 -151 -10 -2 -18 -8 -18 -12 0 -5 -25
-22 -55 -39 -73 -41 -71 -50 3 -13 104 54 111 57 124 44 7 -7 18 -12 25 -12 6
0 35 -14 64 -30 28 -17 53 -29 56 -27 2 3 -18 17 -44 32 -107 63 -108 63 -111
162 -4 96 -12 127 -12 46z"/>
<path d="M9520 7540 c-2 -41 -4 -83 -4 -93 -2 -21 -29 -44 -104 -88 -29 -17
-51 -33 -49 -36 3 -2 28 10 56 27 29 16 58 30 64 30 7 0 18 5 25 12 13 13 20
10 125 -44 73 -37 75 -28 2 13 -30 17 -55 34 -55 39 0 4 -9 10 -19 13 -15 4
-20 17 -25 68 -3 35 -8 80 -9 99 -2 19 -5 1 -7 -40z"/>
<path d="M12407 7518 c-3 -54 -11 -94 -17 -96 -6 -2 -19 -12 -28 -21 -9 -10
-38 -30 -64 -45 -67 -38 -60 -43 10 -8 114 59 100 58 187 13 43 -23 79 -40 81
-39 1 2 -32 25 -75 52 l-77 49 -2 91 c-2 50 -5 92 -6 93 -2 2 -6 -38 -9 -89z"/>
<path d="M280 7535 c-2 -38 -3 -79 -2 -90 1 -21 -23 -41 -111 -91 -26 -15 -45
-29 -43 -32 3 -2 29 10 59 27 30 17 61 31 70 31 8 0 17 6 20 13 4 13 14 10
120 -45 69 -35 76 -30 10 9 -26 15 -55 35 -64 44 -9 9 -21 18 -27 20 -6 2 -15
45 -20 94 l-9 90 -3 -70z"/>
<path d="M1437 7513 c-4 -49 -11 -89 -17 -91 -6 -2 -19 -12 -28 -21 -9 -10
-38 -30 -64 -45 -67 -38 -60 -43 10 -8 104 54 111 57 124 44 7 -7 18 -12 25
-12 7 0 35 -14 63 -31 82 -50 66 -29 -19 25 l-76 49 -3 86 c-2 47 -5 87 -6 88
-2 2 -6 -36 -9 -84z"/>
<path d="M2590 7535 c-2 -38 -3 -79 -3 -90 1 -21 -26 -43 -110 -91 -76 -44
-47 -39 38 6 87 46 73 47 188 -12 69 -35 76 -30 10 9 -26 15 -55 35 -64 44 -9
9 -22 18 -28 20 -6 2 -15 44 -20 94 l-8 90 -3 -70z"/>
<path d="M3170 7540 c-2 -36 -4 -76 -5 -90 0 -18 -16 -34 -62 -65 -99 -65
-101 -67 -33 -34 108 52 106 52 126 41 137 -72 196 -93 89 -32 -30 17 -55 35
-55 40 0 4 -9 10 -19 13 -15 4 -20 17 -25 68 -11 117 -13 124 -16 59z"/>
<path d="M3747 7513 c-4 -49 -11 -89 -17 -91 -6 -2 -19 -12 -28 -21 -9 -10
-38 -30 -64 -45 -67 -38 -60 -43 10 -8 114 59 100 58 187 13 43 -23 79 -40 81
-39 1 2 -32 25 -75 52 l-76 49 -3 86 c-2 47 -5 87 -6 88 -2 2 -6 -36 -9 -84z"/>
<path d="M4900 7535 c-2 -38 -3 -79 -3 -90 1 -14 -21 -34 -77 -70 -43 -27 -77
-51 -76 -53 2 -1 38 16 81 39 87 45 73 46 188 -13 69 -35 76 -30 10 8 -27 15
-56 35 -65 45 -9 9 -22 19 -27 20 -6 2 -15 45 -20 94 l-8 90 -3 -70z"/>
<path d="M5481 7559 c0 -25 -4 -67 -7 -93 -6 -43 -11 -49 -65 -84 -94 -60 -97
-64 -29 -31 108 52 106 52 126 41 137 -72 196 -93 89 -32 -30 17 -55 35 -55
40 0 4 -9 10 -19 13 -15 4 -20 17 -25 68 -11 115 -13 127 -15 78z"/>
<path d="M6057 7513 c-4 -53 -11 -89 -18 -92 -6 -2 -19 -11 -28 -20 -9 -9 -38
-29 -64 -44 -66 -39 -59 -44 11 -9 114 59 100 58 187 12 85 -45 114 -50 38 -6
-110 63 -108 60 -111 155 -2 47 -5 87 -6 88 -2 2 -6 -36 -9 -84z"/>
<path d="M7210 7535 c-2 -38 -3 -79 -3 -90 1 -14 -21 -34 -77 -70 -43 -27 -77
-51 -76 -53 2 -1 38 16 81 39 87 45 73 46 188 -13 69 -35 76 -30 10 8 -27 15
-56 35 -65 45 -9 9 -22 19 -27 20 -6 2 -15 45 -20 94 l-8 90 -3 -70z"/>
<path d="M8366 7513 c-4 -49 -11 -90 -17 -92 -7 -2 -19 -11 -28 -20 -9 -9 -38
-29 -64 -44 -66 -39 -59 -44 11 -9 105 55 115 58 119 45 3 -7 12 -13 20 -13 9
0 40 -14 70 -31 30 -17 56 -29 59 -27 2 3 -17 17 -43 32 -112 64 -109 61 -112
156 -1 46 -3 85 -5 87 -2 2 -6 -36 -10 -84z"/>
<path d="M10097 7513 c-4 -49 -11 -89 -17 -91 -6 -2 -19 -12 -28 -21 -9 -10
-38 -30 -64 -45 -67 -38 -60 -43 10 -8 104 54 111 57 124 44 7 -7 18 -12 25
-12 6 0 35 -14 64 -30 80 -48 67 -30 -19 25 l-77 49 -3 85 c-2 47 -5 87 -6 88
-2 2 -6 -36 -9 -84z"/>
<path d="M11830 7540 c-2 -36 -4 -76 -5 -90 0 -18 -16 -34 -62 -65 -99 -65
-101 -67 -33 -34 108 52 106 52 126 41 11 -5 47 -23 82 -41 77 -40 82 -34 7 9
-30 17 -55 35 -55 40 0 4 -9 10 -19 13 -15 4 -20 17 -25 68 -11 117 -13 124
-16 59z"/>
<path d="M8938 7529 c0 -35 0 -73 0 -84 2 -19 -4 -25 -95 -81 -59 -37 -60 -48
-2 -16 31 18 63 32 72 32 8 0 17 6 20 13 4 13 14 10 120 -45 64 -33 76 -31 20
3 -21 12 -50 33 -65 45 -15 12 -32 24 -37 26 -6 1 -13 39 -16 83 -3 44 -8 82
-11 84 -2 2 -5 -25 -6 -60z"/>
<path d="M11250 7530 c-2 -36 -3 -74 -2 -85 1 -21 -23 -41 -111 -91 -26 -15
-45 -29 -43 -32 3 -2 29 10 59 27 30 17 61 31 70 31 8 0 17 6 20 13 4 13 14
10 120 -45 69 -35 76 -30 10 9 -26 15 -55 35 -64 44 -9 9 -21 18 -28 20 -6 2
-15 42 -19 89 l-9 85 -3 -65z"/>
<path d="M2023 7545 c0 -22 2 -30 4 -17 2 12 2 30 0 40 -3 9 -5 -1 -4 -23z"/>
<path d="M4327 7573 c-11 -10 -8 -63 3 -63 6 0 10 16 10 35 0 36 -2 40 -13 28z"/>
<path d="M10676 7523 c-4 -32 -7 -67 -7 -78 0 -11 -10 -27 -23 -35 -90 -58
-126 -82 -126 -87 0 -2 26 9 58 25 105 55 115 58 119 45 3 -7 12 -13 20 -13 9
0 40 -14 70 -31 30 -17 56 -29 59 -27 2 3 -17 17 -43 32 -110 63 -109 63 -112
145 -1 41 -3 76 -5 78 -2 2 -6 -22 -10 -54z"/>
<path d="M6632 7540 c0 -19 2 -27 5 -17 2 9 2 25 0 35 -3 9 -5 1 -5 -18z"/>
<path d="M2009 7473 c-1 -10 -1 -25 0 -33 1 -8 -9 -22 -22 -30 -81 -51 -127
-82 -127 -87 0 -2 26 9 58 25 105 55 115 58 119 45 3 -7 12 -13 20 -13 9 0 41
-14 72 -32 58 -32 57 -21 -2 16 -18 12 -48 30 -66 41 -22 14 -30 26 -27 38 5
22 -2 47 -15 47 -5 0 -10 -8 -10 -17z"/>
<path d="M4319 7473 c-1 -10 -1 -25 0 -33 1 -8 -13 -24 -31 -35 -17 -11 -47
-29 -65 -41 -63 -39 -59 -47 7 -14 99 51 99 51 118 42 9 -5 46 -23 82 -42 66
-33 70 -25 7 14 -18 12 -48 30 -66 41 -22 14 -30 26 -27 38 5 22 -2 47 -15 47
-5 0 -10 -8 -10 -17z"/>
<path d="M6627 7476 c-3 -8 -4 -22 -1 -33 3 -12 -5 -24 -27 -38 -18 -11 -48
-29 -66 -41 -63 -39 -59 -47 7 -14 99 51 99 51 118 42 9 -5 46 -24 82 -42 66
-33 70 -25 7 14 -18 12 -48 30 -65 41 -18 11 -32 27 -31 35 4 46 -12 69 -24
36z"/>
<path d="M1151 7064 c-2 -98 -13 -146 -33 -152 -10 -2 -18 -8 -18 -12 0 -5
-25 -23 -55 -40 -75 -43 -70 -49 8 -9 101 51 103 52 123 41 137 -72 194 -92
92 -33 -99 57 -97 56 -107 161 -6 66 -9 80 -10 44z"/>
<path d="M2880 7040 c-2 -41 -3 -84 -3 -95 1 -14 -21 -34 -77 -70 -85 -55
-102 -77 -20 -26 28 17 56 31 63 31 7 0 18 5 25 12 13 13 20 10 125 -44 69
-35 76 -30 10 8 -27 15 -56 35 -65 45 -9 9 -22 19 -28 21 -6 2 -14 46 -19 98
l-8 95 -3 -75z"/>
<path d="M5770 7063 c0 -91 -11 -145 -32 -151 -10 -2 -18 -8 -18 -12 0 -5 -25
-22 -55 -39 -73 -41 -71 -50 3 -13 104 54 111 57 124 44 7 -7 18 -12 25 -12 6
0 35 -14 64 -30 80 -48 67 -30 -19 25 l-78 49 -2 90 c-3 97 -12 133 -12 49z"/>
<path d="M7500 7045 c-2 -38 -4 -81 -5 -95 0 -18 -16 -34 -62 -65 -99 -65
-101 -67 -33 -34 108 52 106 52 126 41 11 -5 47 -23 82 -41 77 -40 82 -34 7 9
-30 17 -55 35 -55 40 0 4 -9 10 -19 13 -15 4 -20 17 -25 68 -3 35 -8 80 -9 99
-2 19 -5 4 -7 -35z"/>
<path d="M2 7001 c2 -81 6 -105 18 -111 8 -3 44 -21 80 -40 66 -33 70 -25 7
14 -102 64 -93 50 -96 145 -1 47 -4 87 -7 90 -2 3 -3 -41 -2 -98z"/>
<path d="M570 7035 c-2 -38 -3 -79 -3 -90 1 -14 -21 -34 -77 -70 -43 -27 -77
-51 -76 -53 2 -1 38 16 81 39 87 45 73 46 188 -13 69 -35 76 -30 10 8 -27 15
-56 35 -65 45 -9 9 -22 19 -27 20 -6 2 -15 45 -20 94 l-8 90 -3 -70z"/>
<path d="M1727 7013 c-4 -53 -11 -89 -18 -92 -6 -2 -19 -11 -28 -20 -9 -9 -38
-29 -64 -44 -66 -39 -59 -44 11 -9 114 59 100 58 187 12 85 -45 114 -50 38 -6
-110 63 -108 60 -111 155 -2 47 -5 87 -6 88 -2 2 -6 -36 -9 -84z"/>
<path d="M3460 7058 c0 -86 -12 -140 -32 -146 -10 -2 -18 -8 -18 -12 0 -5 -25
-22 -55 -39 -73 -41 -71 -50 3 -13 104 54 111 57 124 44 7 -7 18 -12 25 -12 6
0 35 -14 64 -30 28 -17 53 -29 56 -27 2 3 -18 17 -44 32 -107 62 -108 64 -111
157 -4 89 -12 121 -12 46z"/>
<path d="M5190 7035 c-2 -38 -4 -78 -4 -88 -2 -21 -29 -44 -104 -88 -29 -17
-51 -33 -49 -36 3 -2 28 10 56 27 29 16 58 30 64 30 7 0 18 5 25 12 13 13 20
10 125 -44 73 -37 75 -28 2 13 -30 17 -55 34 -55 39 0 4 -9 10 -19 13 -15 4
-20 17 -25 68 -11 118 -13 124 -16 54z"/>
<path d="M6920 7035 c-2 -38 -3 -79 -3 -90 1 -21 -26 -43 -110 -91 -76 -44
-47 -39 38 6 87 46 73 47 188 -12 69 -35 76 -30 10 9 -26 15 -55 35 -64 44 -9
9 -22 18 -28 20 -6 2 -15 44 -20 94 l-8 90 -3 -70z"/>
<path d="M8077 7013 c-4 -49 -11 -89 -17 -91 -6 -2 -19 -12 -28 -21 -9 -10
-38 -30 -64 -45 -67 -38 -60 -43 10 -8 114 59 100 58 187 13 43 -23 79 -40 81
-39 1 2 -32 25 -75 52 l-76 49 -3 86 c-2 47 -5 87 -6 88 -2 2 -6 -36 -9 -84z"/>
<path d="M9230 7035 c-2 -38 -3 -79 -3 -90 1 -14 -21 -34 -77 -70 -43 -27 -77
-51 -76 -53 2 -1 38 16 81 39 87 45 73 46 188 -13 69 -35 76 -30 10 9 -26 15
-55 35 -64 44 -9 9 -22 18 -28 20 -6 2 -15 44 -20 94 l-8 90 -3 -70z"/>
<path d="M9811 7059 c-2 -94 -13 -141 -33 -147 -10 -2 -18 -8 -18 -12 0 -5
-25 -23 -55 -40 -75 -43 -70 -49 8 -9 101 51 103 52 123 41 137 -72 194 -92
92 -33 -98 57 -97 56 -107 156 -5 58 -9 74 -10 44z"/>
<path d="M10387 7013 c-4 -53 -11 -89 -18 -92 -6 -2 -19 -11 -28 -20 -9 -9
-38 -29 -64 -44 -66 -39 -59 -44 11 -9 114 59 100 58 187 12 85 -45 114 -50
38 -6 -110 63 -108 60 -111 155 -2 47 -5 87 -6 88 -2 2 -6 -36 -9 -84z"/>
<path d="M11540 7035 c-2 -38 -3 -79 -3 -90 1 -14 -21 -34 -77 -70 -43 -27
-77 -51 -76 -53 2 -1 38 16 81 39 87 45 73 46 188 -13 69 -35 76 -30 10 8 -27
15 -56 35 -65 45 -9 9 -22 19 -27 20 -6 2 -15 45 -20 94 l-8 90 -3 -70z"/>
<path d="M12120 7058 c0 -86 -12 -140 -32 -146 -10 -2 -18 -8 -18 -12 0 -5
-25 -23 -55 -40 -75 -43 -70 -49 8 -9 101 51 103 52 123 41 11 -6 48 -24 84
-41 68 -33 66 -31 -32 34 l-61 40 -4 85 c-5 92 -13 121 -13 48z"/>
<path d="M2298 7029 c0 -35 0 -73 0 -84 2 -19 -4 -25 -95 -81 -59 -37 -60 -48
-2 -16 31 18 63 32 72 32 8 0 17 6 20 13 4 13 14 10 120 -45 95 -49 73 -29
-69 62 -13 8 -23 24 -23 35 0 43 -10 137 -15 143 -3 3 -7 -24 -8 -59z"/>
<path d="M4037 7008 c-4 -48 -12 -85 -18 -87 -6 -2 -19 -11 -28 -20 -9 -9 -38
-29 -64 -44 -66 -39 -59 -44 11 -9 105 55 115 58 119 45 3 -7 12 -13 20 -13 9
0 40 -14 70 -31 30 -17 56 -29 59 -27 2 3 -17 17 -43 32 -111 63 -109 62 -112
150 -1 44 -3 81 -5 83 -2 2 -6 -34 -9 -79z"/>
<path d="M4610 7030 c-2 -36 -3 -74 -2 -85 1 -21 -23 -41 -111 -91 -26 -15
-45 -29 -43 -32 3 -2 29 10 59 27 30 17 61 31 70 31 8 0 17 6 20 13 4 13 14
10 120 -45 69 -35 76 -30 10 9 -26 15 -55 35 -64 44 -9 9 -21 18 -27 20 -6 2
-15 42 -20 89 l-9 85 -3 -65z"/>
<path d="M6350 7059 c0 -84 -12 -135 -35 -150 -94 -60 -125 -81 -125 -86 0 -2
26 9 58 25 105 55 115 58 119 45 3 -7 12 -13 20 -13 9 0 40 -14 70 -31 30 -17
56 -29 59 -27 2 3 -17 17 -43 32 -111 63 -109 62 -112 150 -2 78 -11 123 -11
55z"/>
<path d="M12697 7008 c-4 -48 -12 -85 -18 -87 -6 -2 -19 -11 -28 -20 -9 -9
-38 -29 -64 -44 -66 -39 -59 -44 11 -9 107 56 103 55 150 32 59 -29 64 -19 9
16 l-44 29 -2 79 c-1 44 -3 81 -5 83 -2 2 -6 -34 -9 -79z"/>
<path d="M10958 7024 c0 -32 0 -68 0 -79 2 -19 -4 -25 -95 -81 -63 -39 -59
-47 7 -14 99 51 99 51 118 42 9 -5 45 -23 80 -41 100 -52 80 -33 -64 59 -13 8
-23 24 -24 35 0 117 -19 183 -22 79z"/>
<path d="M8655 7047 c-4 -10 -5 -21 -1 -24 10 -10 18 4 13 24 -4 17 -4 17 -12
0z"/>
<path d="M8647 6976 c-3 -8 -4 -22 -1 -33 3 -12 -5 -24 -27 -38 -18 -11 -48
-29 -66 -41 -63 -39 -59 -47 7 -14 36 19 73 37 83 42 18 9 18 9 117 -42 66
-33 70 -25 7 14 -18 12 -48 30 -66 41 -22 14 -30 26 -27 38 5 22 -2 47 -14 47
-4 0 -10 -6 -13 -14z"/>
<path d="M860 6540 c-2 -41 -4 -83 -4 -93 -2 -21 -29 -44 -104 -88 -29 -17
-51 -33 -49 -36 3 -2 28 10 56 27 29 16 58 30 64 30 7 0 18 5 25 12 13 13 20
10 125 -44 73 -37 75 -28 2 13 -30 17 -55 34 -55 39 0 4 -9 10 -19 13 -15 4
-20 17 -25 68 -3 35 -8 80 -9 99 -2 19 -5 1 -7 -40z"/>
<path d="M7790 6563 c0 -91 -11 -145 -32 -151 -10 -2 -18 -8 -18 -12 0 -5 -25
-22 -55 -39 -73 -41 -71 -50 3 -13 104 54 111 57 124 44 7 -7 18 -12 25 -12 6
0 35 -14 64 -30 28 -17 53 -29 56 -27 2 3 -18 17 -44 32 -107 63 -108 63 -111
162 -4 96 -12 127 -12 46z"/>
<path d="M9520 6540 c-2 -41 -4 -83 -4 -93 -2 -21 -29 -44 -104 -88 -29 -17
-51 -33 -49 -36 3 -2 28 10 56 27 29 16 58 30 64 30 7 0 18 5 25 12 13 13 20
10 125 -44 73 -37 75 -28 2 13 -30 17 -55 34 -55 39 0 4 -9 10 -19 13 -15 4
-20 17 -25 68 -3 35 -8 80 -9 99 -2 19 -5 1 -7 -40z"/>
<path d="M12407 6518 c-3 -54 -11 -94 -17 -96 -6 -2 -19 -12 -28 -21 -9 -10
-38 -30 -64 -45 -67 -38 -60 -43 10 -8 114 59 100 58 187 13 43 -23 79 -40 81
-39 1 2 -32 25 -75 52 l-77 49 -2 91 c-2 50 -5 92 -6 93 -2 2 -6 -38 -9 -89z"/>
<path d="M1437 6513 c-4 -49 -11 -89 -17 -91 -6 -2 -19 -12 -28 -21 -9 -10
-38 -30 -64 -45 -67 -38 -60 -43 10 -8 114 59 100 58 187 13 43 -23 79 -40 81
-38 2 1 -32 25 -74 52 l-77 49 -3 85 c-2 47 -5 87 -6 88 -2 2 -6 -36 -9 -84z"/>
<path d="M2590 6535 c-2 -38 -3 -79 -3 -90 1 -21 -26 -43 -110 -91 -76 -44
-47 -39 38 6 87 46 73 47 188 -12 69 -35 76 -30 10 9 -26 15 -55 35 -64 44 -9
9 -22 18 -28 20 -6 2 -15 44 -20 94 l-8 90 -3 -70z"/>
<path d="M3170 6540 c-2 -36 -4 -76 -5 -90 0 -18 -16 -34 -62 -65 -99 -65
-101 -67 -33 -34 108 52 106 52 126 41 137 -72 196 -93 89 -32 -30 17 -55 35
-55 40 0 4 -9 10 -19 13 -15 4 -20 17 -25 68 -11 117 -13 124 -16 59z"/>
<path d="M3747 6513 c-4 -49 -11 -89 -17 -91 -6 -2 -19 -12 -28 -21 -9 -10
-38 -30 -64 -45 -67 -38 -60 -43 10 -8 114 59 100 58 187 13 43 -23 79 -40 81
-39 1 2 -32 25 -75 52 l-76 49 -3 86 c-2 47 -5 87 -6 88 -2 2 -6 -36 -9 -84z"/>
<path d="M4900 6535 c-2 -38 -3 -79 -3 -90 1 -14 -21 -34 -77 -70 -43 -27 -77
-51 -76 -53 2 -1 38 16 81 39 87 45 73 46 188 -13 69 -35 76 -30 10 8 -27 15
-56 35 -65 45 -9 9 -22 19 -27 20 -6 2 -15 45 -20 94 l-8 90 -3 -70z"/>
<path d="M5481 6559 c0 -25 -4 -67 -7 -93 -6 -43 -11 -49 -65 -84 -94 -60 -97
-64 -29 -31 108 52 106 52 126 41 137 -72 196 -93 89 -32 -30 17 -55 35 -55
40 0 4 -9 10 -19 13 -15 4 -20 17 -25 68 -11 115 -13 127 -15 78z"/>
<path d="M6057 6513 c-4 -53 -11 -89 -18 -92 -6 -2 -19 -11 -28 -20 -9 -9 -38
-29 -64 -44 -66 -39 -59 -44 11 -9 114 59 100 58 187 12 85 -45 114 -50 38 -6
-110 63 -108 60 -111 155 -2 47 -5 87 -6 88 -2 2 -6 -36 -9 -84z"/>
<path d="M7210 6535 c-2 -38 -3 -79 -3 -90 1 -14 -21 -34 -77 -70 -43 -27 -77
-51 -76 -53 2 -1 38 16 81 39 87 45 73 46 188 -13 69 -35 76 -30 10 8 -27 15
-56 35 -65 45 -9 9 -22 19 -27 20 -6 2 -15 45 -20 94 l-8 90 -3 -70z"/>
<path d="M8366 6513 c-4 -49 -11 -90 -17 -92 -7 -2 -19 -11 -28 -20 -9 -9 -38
-29 -64 -44 -66 -39 -59 -44 11 -9 105 55 115 58 119 45 3 -7 12 -13 20 -13 9
0 40 -14 70 -31 30 -17 56 -29 59 -27 2 3 -17 17 -43 32 -112 64 -109 61 -112
156 -1 46 -3 85 -5 87 -2 2 -6 -36 -10 -84z"/>
<path d="M10097 6513 c-4 -49 -11 -89 -17 -91 -6 -2 -19 -12 -28 -21 -9 -10
-38 -30 -64 -45 -67 -38 -60 -43 10 -8 104 54 111 57 124 44 7 -7 18 -12 25
-12 6 0 35 -14 64 -30 80 -48 67 -30 -19 25 l-77 49 -3 85 c-2 47 -5 87 -6 88
-2 2 -6 -36 -9 -84z"/>
<path d="M11830 6540 c-2 -36 -4 -76 -5 -90 0 -18 -16 -34 -62 -65 -99 -65
-101 -67 -33 -34 108 52 106 52 126 41 11 -5 47 -23 82 -41 77 -40 82 -34 7 9
-30 17 -55 35 -55 40 0 4 -9 10 -19 13 -15 4 -20 17 -25 68 -11 117 -13 124
-16 59z"/>
<path d="M280 6530 c-2 -36 -3 -74 -2 -85 1 -21 -23 -41 -111 -91 -26 -15 -45
-29 -43 -32 3 -2 29 10 59 27 30 17 61 31 70 31 8 0 17 6 20 13 4 13 14 10
120 -45 69 -35 76 -30 10 9 -26 15 -55 35 -64 44 -9 9 -21 18 -27 20 -6 2 -15
42 -20 89 l-9 85 -3 -65z"/>
<path d="M8938 6529 c0 -35 0 -73 0 -84 2 -19 -4 -25 -95 -81 -59 -37 -60 -48
-2 -16 31 18 63 32 72 32 8 0 17 6 20 13 4 13 14 10 120 -45 64 -33 76 -31 20
3 -21 12 -50 33 -65 45 -15 12 -32 24 -37 26 -6 1 -13 39 -16 83 -3 44 -8 82
-11 84 -2 2 -5 -25 -6 -60z"/>
<path d="M11250 6530 c-2 -36 -3 -74 -2 -85 1 -21 -23 -41 -111 -91 -26 -15
-45 -29 -43 -32 3 -2 29 10 59 27 30 17 61 31 70 31 8 0 17 6 20 13 4 13 14
10 120 -45 69 -35 76 -30 10 9 -26 15 -55 35 -64 44 -9 9 -21 18 -28 20 -6 2
-15 42 -19 89 l-9 85 -3 -65z"/>
<path d="M2023 6545 c0 -22 2 -30 4 -17 2 12 2 30 0 40 -3 9 -5 -1 -4 -23z"/>
<path d="M4327 6573 c-11 -10 -8 -63 3 -63 6 0 10 16 10 35 0 36 -2 40 -13 28z"/>
<path d="M10676 6523 c-4 -32 -7 -67 -7 -78 0 -11 -10 -27 -23 -35 -90 -58
-126 -82 -126 -87 0 -2 26 9 58 25 105 55 115 58 119 45 3 -7 12 -13 20 -13 9
0 40 -14 70 -31 30 -17 56 -29 59 -27 2 3 -17 17 -43 32 -110 63 -109 63 -112
145 -1 41 -3 76 -5 78 -2 2 -6 -22 -10 -54z"/>
<path d="M6632 6540 c0 -19 2 -27 5 -17 2 9 2 25 0 35 -3 9 -5 1 -5 -18z"/>
<path d="M2009 6473 c-1 -10 -1 -25 0 -33 1 -8 -9 -22 -22 -30 -81 -51 -127
-82 -127 -87 0 -2 26 9 58 25 105 55 115 58 119 45 3 -7 12 -13 20 -13 9 0 41
-14 72 -32 58 -32 57 -21 -2 16 -18 12 -48 30 -66 41 -22 14 -30 26 -27 38 5
22 -2 47 -15 47 -5 0 -10 -8 -10 -17z"/>
<path d="M4319 6473 c-1 -10 -1 -25 0 -33 1 -8 -13 -24 -31 -35 -17 -11 -47
-29 -65 -41 -63 -39 -59 -47 7 -14 36 19 73 37 83 42 18 9 18 9 117 -42 66
-33 70 -25 7 14 -18 12 -48 30 -66 41 -22 14 -30 26 -27 38 5 22 -2 47 -15 47
-5 0 -10 -8 -10 -17z"/>
<path d="M6627 6476 c-3 -8 -4 -22 -1 -33 3 -12 -5 -24 -27 -38 -18 -11 -48
-29 -66 -41 -63 -39 -59 -47 7 -14 99 51 99 51 118 42 9 -5 46 -24 82 -42 66
-33 70 -25 7 14 -18 12 -48 30 -65 41 -18 11 -32 27 -31 35 4 46 -12 69 -24
36z"/>
<path d="M1151 6064 c-2 -98 -13 -146 -33 -152 -10 -2 -18 -8 -18 -12 0 -5
-25 -23 -55 -40 -75 -43 -70 -49 8 -9 101 51 103 52 123 41 137 -72 194 -92
92 -33 -99 57 -97 56 -107 161 -6 66 -9 80 -10 44z"/>
<path d="M2880 6040 c-2 -41 -3 -84 -3 -95 1 -14 -21 -34 -77 -70 -43 -27 -77
-51 -76 -53 2 -1 38 16 81 39 87 45 73 46 188 -13 69 -35 76 -30 10 8 -27 15
-56 35 -65 45 -9 9 -22 19 -28 21 -6 2 -14 46 -19 98 l-8 95 -3 -75z"/>
<path d="M5770 6063 c0 -91 -11 -145 -32 -151 -10 -2 -18 -8 -18 -12 0 -5 -25
-22 -55 -39 -73 -41 -71 -50 3 -13 113 59 100 58 187 13 44 -22 80 -39 82 -38
1 1 -33 25 -75 52 l-78 49 -2 90 c-3 97 -12 133 -12 49z"/>
<path d="M7500 6045 c-2 -38 -4 -81 -5 -95 0 -18 -16 -34 -62 -65 -99 -65
-101 -67 -33 -34 108 52 106 52 126 41 137 -72 196 -93 89 -32 -30 17 -55 35
-55 40 0 4 -9 10 -19 13 -15 4 -20 17 -25 68 -3 35 -8 80 -9 99 -2 19 -5 4 -7
-35z"/>
<path d="M2 6001 c2 -81 6 -105 18 -111 8 -3 44 -21 80 -40 66 -33 70 -25 7
14 -102 64 -93 50 -96 145 -1 47 -4 87 -7 90 -2 3 -3 -41 -2 -98z"/>
<path d="M570 6035 c-2 -38 -3 -79 -3 -90 1 -14 -21 -34 -77 -70 -43 -27 -77
-51 -76 -53 2 -1 38 16 81 39 87 45 73 46 188 -13 69 -35 76 -30 10 8 -27 15
-56 35 -65 45 -9 9 -22 19 -27 20 -6 2 -15 45 -20 94 l-8 90 -3 -70z"/>
<path d="M1727 6013 c-4 -53 -11 -89 -18 -92 -6 -2 -19 -11 -28 -20 -9 -9 -38
-29 -64 -44 -66 -39 -59 -44 11 -9 114 59 100 58 187 12 85 -45 114 -50 38 -6
-110 63 -108 60 -111 155 -2 47 -5 87 -6 88 -2 2 -6 -36 -9 -84z"/>
<path d="M3460 6058 c0 -86 -12 -140 -32 -146 -10 -2 -18 -8 -18 -12 0 -5 -25
-23 -55 -40 -72 -41 -71 -49 3 -12 104 54 111 57 124 44 7 -7 18 -12 25 -12 6
0 35 -14 64 -30 28 -17 53 -29 56 -27 2 3 -18 17 -44 32 -107 62 -108 64 -111
157 -4 89 -12 121 -12 46z"/>
<path d="M5190 6035 c-2 -38 -4 -78 -4 -88 -2 -21 -29 -44 -104 -88 -29 -17
-51 -33 -49 -36 3 -2 28 10 56 27 29 16 58 30 64 30 7 0 18 5 25 12 13 13 20
10 125 -44 73 -37 74 -29 2 12 -30 17 -55 35 -55 40 0 4 -9 10 -19 13 -15 4
-20 17 -25 68 -11 118 -13 124 -16 54z"/>
<path d="M6920 6035 c-2 -38 -3 -79 -3 -90 1 -21 -26 -43 -110 -91 -76 -44
-47 -39 38 6 87 46 73 47 188 -12 69 -35 76 -30 10 9 -26 15 -55 35 -64 44 -9
9 -22 18 -28 20 -6 2 -15 44 -20 94 l-8 90 -3 -70z"/>
<path d="M8077 6013 c-4 -49 -11 -89 -17 -91 -6 -2 -19 -12 -28 -21 -9 -10
-38 -30 -64 -45 -67 -38 -60 -43 10 -8 114 59 100 58 187 13 43 -23 79 -40 81
-39 1 2 -32 25 -75 52 l-76 49 -3 86 c-2 47 -5 87 -6 88 -2 2 -6 -36 -9 -84z"/>
<path d="M9230 6035 c-2 -38 -3 -79 -3 -90 1 -14 -21 -34 -77 -70 -43 -27 -77
-51 -76 -53 2 -1 38 16 81 39 87 45 73 46 188 -13 69 -35 76 -30 10 9 -26 15
-55 35 -64 44 -9 9 -22 18 -28 20 -6 2 -15 44 -20 94 l-8 90 -3 -70z"/>
<path d="M9811 6059 c-2 -94 -13 -141 -33 -147 -10 -2 -18 -8 -18 -12 0 -5
-25 -23 -55 -40 -75 -43 -70 -49 8 -9 101 51 103 52 123 41 137 -72 194 -92
92 -33 -98 57 -97 56 -107 156 -5 58 -9 74 -10 44z"/>
<path d="M10387 6013 c-4 -53 -11 -89 -18 -92 -6 -2 -19 -11 -28 -20 -9 -9
-38 -29 -64 -44 -66 -39 -59 -44 11 -9 114 59 100 58 187 12 85 -45 114 -50
38 -6 -110 63 -108 60 -111 155 -2 47 -5 87 -6 88 -2 2 -6 -36 -9 -84z"/>
<path d="M11540 6035 c-2 -38 -3 -79 -3 -90 1 -14 -21 -34 -77 -70 -43 -27
-77 -51 -76 -53 2 -1 38 16 81 39 87 45 73 46 188 -13 69 -35 76 -30 10 8 -27
15 -56 35 -65 45 -9 9 -22 19 -27 20 -6 2 -15 45 -20 94 l-8 90 -3 -70z"/>
<path d="M12120 6058 c0 -86 -12 -140 -32 -146 -10 -2 -18 -8 -18 -12 0 -5
-25 -23 -55 -40 -75 -43 -70 -49 8 -9 101 51 103 52 123 41 11 -6 48 -24 84
-41 68 -33 66 -31 -32 34 l-61 40 -4 85 c-5 92 -13 121 -13 48z"/>
<path d="M2298 6029 c0 -35 0 -73 0 -84 2 -19 -4 -25 -95 -81 -63 -39 -59 -47
7 -14 99 51 99 51 118 42 9 -5 45 -23 80 -41 100 -52 80 -33 -64 59 -13 8 -23
24 -23 35 0 43 -10 137 -15 143 -3 3 -7 -24 -8 -59z"/>
<path d="M4037 6008 c-4 -48 -12 -85 -18 -87 -6 -2 -19 -11 -28 -20 -9 -9 -38
-29 -64 -44 -66 -39 -59 -44 11 -9 105 55 115 58 119 45 3 -7 12 -13 20 -13 9
0 40 -14 70 -31 30 -17 56 -29 59 -27 2 3 -17 17 -43 32 -111 63 -109 62 -112
150 -1 44 -3 81 -5 83 -2 2 -6 -34 -9 -79z"/>
<path d="M4610 6030 c-2 -36 -3 -74 -2 -85 1 -21 -23 -41 -111 -91 -26 -15
-45 -29 -43 -32 3 -2 29 10 59 27 30 17 61 31 70 31 8 0 17 6 20 13 4 13 14
10 120 -45 69 -35 76 -30 10 9 -26 15 -55 35 -64 44 -9 9 -21 18 -27 20 -6 2
-15 42 -20 89 l-9 85 -3 -65z"/>
<path d="M6350 6059 c0 -84 -12 -135 -35 -150 -94 -60 -125 -81 -125 -86 0 -2
26 9 58 25 105 55 115 58 119 45 3 -7 12 -13 20 -13 9 0 40 -14 70 -31 30 -17
56 -29 59 -27 2 3 -17 17 -43 32 -111 63 -109 62 -112 150 -2 78 -11 123 -11
55z"/>
<path d="M12697 6008 c-4 -48 -12 -85 -18 -87 -6 -2 -19 -11 -28 -20 -9 -9
-38 -29 -64 -44 -66 -39 -59 -44 11 -9 107 56 103 55 150 32 59 -29 64 -19 9
16 l-44 29 -2 79 c-1 44 -3 81 -5 83 -2 2 -6 -34 -9 -79z"/>
<path d="M10958 6024 c0 -32 0 -68 0 -79 2 -19 -4 -25 -95 -81 -63 -39 -59
-47 7 -14 99 51 99 51 118 42 9 -5 45 -23 80 -41 100 -52 80 -33 -64 59 -13 8
-23 24 -24 35 0 117 -19 183 -22 79z"/>
<path d="M8655 6047 c-4 -10 -5 -21 -1 -24 10 -10 18 4 13 24 -4 17 -4 17 -12
0z"/>
<path d="M8647 5976 c-3 -8 -4 -22 -1 -33 3 -12 -5 -24 -27 -38 -18 -11 -48
-29 -66 -41 -63 -39 -59 -47 7 -14 36 19 73 37 83 42 18 9 18 9 117 -42 66
-33 70 -25 7 14 -18 12 -48 30 -66 41 -22 14 -30 26 -27 38 5 22 -2 47 -14 47
-4 0 -10 -6 -13 -14z"/>
<path d="M860 5540 c-2 -41 -4 -83 -4 -93 -2 -21 -29 -44 -104 -88 -29 -17
-51 -33 -49 -36 3 -2 28 10 56 27 29 16 58 30 64 30 7 0 18 5 25 12 13 13 20
10 125 -44 73 -37 75 -28 2 13 -30 17 -55 34 -55 39 0 4 -9 10 -19 13 -15 4
-20 17 -25 68 -3 35 -8 80 -9 99 -2 19 -5 1 -7 -40z"/>
<path d="M7790 5563 c0 -91 -11 -145 -32 -151 -10 -2 -18 -8 -18 -12 0 -5 -25
-22 -55 -39 -73 -41 -71 -50 3 -13 104 54 111 57 124 44 7 -7 18 -12 25 -12 6
0 35 -14 64 -30 28 -17 53 -29 56 -27 2 3 -18 17 -44 32 -107 63 -108 63 -111
162 -4 96 -12 127 -12 46z"/>
<path d="M9520 5540 c-2 -41 -4 -83 -4 -93 -2 -21 -29 -44 -104 -88 -29 -17
-51 -33 -49 -36 3 -2 28 10 56 27 29 16 58 30 64 30 7 0 18 5 25 12 13 13 20
10 125 -44 73 -37 75 -28 2 13 -30 17 -55 34 -55 39 0 4 -9 10 -19 13 -15 4
-20 17 -25 68 -3 35 -8 80 -9 99 -2 19 -5 1 -7 -40z"/>
<path d="M12407 5518 c-3 -54 -11 -94 -17 -96 -6 -2 -19 -12 -28 -21 -9 -10
-38 -30 -64 -45 -67 -38 -60 -43 10 -8 114 59 100 58 187 13 43 -23 79 -40 81
-39 1 2 -32 25 -75 52 l-77 49 -2 91 c-2 50 -5 92 -6 93 -2 2 -6 -38 -9 -89z"/>
<path d="M1437 5513 c-4 -49 -11 -89 -17 -91 -6 -2 -19 -12 -28 -21 -9 -10
-38 -30 -64 -45 -67 -38 -60 -43 10 -8 114 59 100 58 187 13 43 -23 79 -40 81
-38 2 1 -32 25 -74 52 l-77 49 -3 85 c-2 47 -5 87 -6 88 -2 2 -6 -36 -9 -84z"/>
<path d="M2590 5535 c-2 -38 -3 -79 -3 -90 1 -21 -26 -43 -110 -91 -76 -44
-47 -39 38 6 87 46 73 47 188 -12 69 -35 76 -30 10 9 -26 15 -55 35 -64 44 -9
9 -22 18 -28 20 -6 2 -15 44 -20 94 l-8 90 -3 -70z"/>
<path d="M3170 5540 c-2 -36 -4 -76 -5 -90 0 -18 -16 -34 -62 -65 -99 -65
-101 -67 -33 -34 108 52 106 52 126 41 137 -72 196 -93 89 -32 -30 17 -55 35
-55 40 0 4 -9 10 -19 13 -15 4 -20 17 -25 68 -11 117 -13 124 -16 59z"/>
<path d="M3747 5513 c-4 -49 -11 -89 -17 -91 -6 -2 -19 -12 -28 -21 -9 -10
-38 -30 -64 -45 -67 -38 -60 -43 10 -8 114 59 100 58 187 13 43 -23 79 -40 81
-39 1 2 -32 25 -75 52 l-76 49 -3 86 c-2 47 -5 87 -6 88 -2 2 -6 -36 -9 -84z"/>
<path d="M4900 5535 c-2 -38 -3 -79 -3 -90 1 -14 -21 -34 -77 -70 -43 -27 -77
-51 -76 -53 2 -1 38 16 81 39 87 45 73 46 188 -13 69 -35 76 -30 10 8 -27 15
-56 35 -65 45 -9 9 -22 19 -27 20 -6 2 -15 45 -20 94 l-8 90 -3 -70z"/>
<path d="M5481 5559 c0 -25 -4 -67 -7 -93 -6 -43 -11 -49 -65 -84 -94 -60 -97
-64 -29 -31 108 52 106 52 126 41 137 -72 196 -93 89 -32 -30 17 -55 35 -55
40 0 4 -9 10 -19 13 -15 4 -20 17 -25 68 -11 115 -13 127 -15 78z"/>
<path d="M6057 5513 c-4 -53 -11 -89 -18 -92 -6 -2 -19 -11 -28 -20 -9 -9 -38
-29 -64 -44 -66 -39 -59 -44 11 -9 114 59 100 58 187 12 85 -45 114 -50 38 -6
-110 63 -108 60 -111 155 -2 47 -5 87 -6 88 -2 2 -6 -36 -9 -84z"/>
<path d="M7210 5535 c-2 -38 -3 -79 -3 -90 1 -14 -21 -34 -77 -70 -43 -27 -77
-51 -76 -53 2 -1 38 16 81 39 87 45 73 46 188 -13 69 -35 76 -30 10 8 -27 15
-56 35 -65 45 -9 9 -22 19 -27 20 -6 2 -15 45 -20 94 l-8 90 -3 -70z"/>
<path d="M8366 5513 c-4 -49 -11 -90 -17 -92 -7 -2 -19 -11 -28 -20 -9 -9 -38
-29 -64 -44 -66 -39 -59 -44 11 -9 105 55 115 58 119 45 3 -7 12 -13 20 -13 9
0 40 -14 70 -31 30 -17 56 -29 59 -27 2 3 -17 17 -43 32 -112 64 -109 61 -112
156 -1 46 -3 85 -5 87 -2 2 -6 -36 -10 -84z"/>
<path d="M10097 5513 c-4 -49 -11 -89 -17 -91 -6 -2 -19 -12 -28 -21 -9 -10
-38 -30 -64 -45 -67 -38 -60 -43 10 -8 104 54 111 57 124 44 7 -7 18 -12 25
-12 6 0 35 -14 64 -30 80 -48 67 -30 -19 25 l-77 49 -3 85 c-2 47 -5 87 -6 88
-2 2 -6 -36 -9 -84z"/>
<path d="M11830 5540 c-2 -36 -4 -76 -5 -90 0 -18 -16 -34 -62 -65 -99 -65
-101 -67 -33 -34 108 52 106 52 126 41 11 -5 47 -23 82 -41 77 -40 82 -34 7 9
-30 17 -55 35 -55 40 0 4 -9 10 -19 13 -15 4 -20 17 -25 68 -11 117 -13 124
-16 59z"/>
<path d="M280 5530 c-2 -36 -3 -74 -2 -85 1 -21 -23 -41 -111 -91 -26 -15 -45
-29 -43 -32 3 -2 29 10 59 27 30 17 61 31 70 31 8 0 17 6 20 13 4 13 14 10
120 -45 69 -35 76 -30 10 9 -26 15 -55 35 -64 44 -9 9 -21 18 -27 20 -6 2 -15
42 -20 89 l-9 85 -3 -65z"/>
<path d="M8938 5529 c0 -35 0 -73 0 -84 2 -19 -4 -25 -95 -81 -59 -37 -60 -48
-2 -16 31 18 63 32 72 32 8 0 17 6 20 13 4 13 14 10 120 -45 64 -33 76 -31 20
3 -21 12 -50 33 -65 45 -15 12 -32 24 -37 26 -6 1 -13 39 -16 83 -3 44 -8 82
-11 84 -2 2 -5 -25 -6 -60z"/>
<path d="M11250 5530 c-2 -36 -3 -74 -2 -85 1 -21 -23 -41 -111 -91 -26 -15
-45 -29 -43 -32 3 -2 29 10 59 27 30 17 61 31 70 31 8 0 17 6 20 13 4 13 14
10 120 -45 69 -35 76 -30 10 9 -26 15 -55 35 -64 44 -9 9 -21 18 -28 20 -6 2
-15 42 -19 89 l-9 85 -3 -65z"/>
<path d="M4327 5573 c-11 -10 -8 -63 3 -63 6 0 10 16 10 35 0 36 -2 40 -13 28z"/>
<path d="M10676 5523 c-4 -32 -7 -67 -7 -78 0 -11 -10 -27 -23 -35 -90 -58
-126 -82 -126 -87 0 -2 26 9 58 25 105 55 115 58 119 45 3 -7 12 -13 20 -13 9
0 40 -14 70 -31 30 -17 56 -29 59 -27 2 3 -17 17 -43 32 -110 63 -109 63 -112
145 -1 41 -3 76 -5 78 -2 2 -6 -22 -10 -54z"/>
<path d="M2022 5540 c0 -19 2 -27 5 -17 2 9 2 25 0 35 -3 9 -5 1 -5 -18z"/>
<path d="M6632 5540 c0 -19 2 -27 5 -17 2 9 2 25 0 35 -3 9 -5 1 -5 -18z"/>
<path d="M2009 5473 c-1 -10 -1 -25 0 -33 1 -8 -9 -22 -22 -30 -81 -51 -127
-82 -127 -87 0 -2 26 9 58 25 105 55 115 58 119 45 3 -7 12 -13 20 -13 9 0 41
-14 72 -32 58 -32 57 -21 -2 16 -18 12 -48 30 -66 41 -22 14 -30 26 -27 38 5
22 -2 47 -15 47 -5 0 -10 -8 -10 -17z"/>
<path d="M4319 5473 c-1 -10 -1 -25 0 -33 1 -8 -13 -24 -31 -35 -17 -11 -47
-29 -65 -41 -63 -39 -59 -47 7 -14 99 51 99 51 118 42 9 -5 46 -23 82 -42 66
-33 70 -25 7 14 -18 12 -48 30 -66 41 -22 14 -30 26 -27 38 5 22 -2 47 -15 47
-5 0 -10 -8 -10 -17z"/>
<path d="M6627 5476 c-3 -8 -4 -22 -1 -33 3 -12 -5 -24 -27 -38 -18 -11 -48
-29 -66 -41 -63 -39 -59 -47 7 -14 99 51 99 51 118 42 9 -5 46 -24 82 -42 66
-33 70 -25 7 14 -18 12 -48 30 -65 41 -18 11 -32 27 -31 35 4 46 -12 69 -24
36z"/>
<path d="M1151 5064 c-2 -98 -13 -146 -33 -152 -10 -2 -18 -8 -18 -12 0 -5
-25 -23 -55 -40 -75 -43 -70 -49 8 -9 101 51 103 52 123 41 137 -72 194 -92
92 -33 -99 57 -97 56 -107 161 -6 66 -9 80 -10 44z"/>
<path d="M2880 5040 c-2 -41 -3 -84 -3 -95 1 -14 -21 -34 -77 -70 -85 -55
-102 -77 -20 -26 28 17 56 31 63 31 7 0 18 5 25 12 13 13 20 10 125 -44 69
-35 76 -30 10 8 -27 15 -56 35 -65 45 -9 9 -22 19 -28 21 -6 2 -14 46 -19 98
l-8 95 -3 -75z"/>
<path d="M5770 5063 c0 -91 -11 -145 -32 -151 -10 -2 -18 -8 -18 -12 0 -5 -25
-22 -55 -39 -73 -41 -71 -50 3 -13 104 54 111 57 124 44 7 -7 18 -12 25 -12 6
0 35 -14 64 -30 80 -48 67 -30 -19 25 l-78 49 -2 90 c-3 97 -12 133 -12 49z"/>
<path d="M7500 5045 c-2 -38 -4 -81 -5 -95 0 -18 -16 -34 -62 -65 -99 -65
-101 -67 -33 -34 108 52 106 52 126 41 11 -5 47 -23 82 -41 77 -40 82 -34 7 9
-30 17 -55 35 -55 40 0 4 -9 10 -19 13 -15 4 -20 17 -25 68 -3 35 -8 80 -9 99
-2 19 -5 4 -7 -35z"/>
<path d="M2 5001 c2 -81 6 -105 18 -111 8 -3 44 -21 80 -40 66 -33 70 -25 7
14 -102 64 -93 50 -96 145 -1 47 -4 87 -7 90 -2 3 -3 -41 -2 -98z"/>
<path d="M570 5035 c-2 -38 -3 -79 -3 -90 1 -14 -21 -34 -77 -70 -43 -27 -77
-51 -76 -53 2 -1 38 16 81 39 87 45 73 46 188 -13 69 -35 76 -30 10 8 -27 15
-56 35 -65 45 -9 9 -22 19 -27 20 -6 2 -15 45 -20 94 l-8 90 -3 -70z"/>
<path d="M1727 5013 c-4 -53 -11 -89 -18 -92 -6 -2 -19 -11 -28 -20 -9 -9 -38
-29 -64 -44 -66 -39 -59 -44 11 -9 114 59 100 58 187 12 85 -45 114 -50 38 -6
-110 63 -108 60 -111 155 -2 47 -5 87 -6 88 -2 2 -6 -36 -9 -84z"/>
<path d="M3460 5058 c0 -86 -12 -140 -32 -146 -10 -2 -18 -8 -18 -12 0 -5 -25
-22 -55 -39 -73 -41 -71 -50 3 -13 104 54 111 57 124 44 7 -7 18 -12 25 -12 6
0 35 -14 64 -30 28 -17 53 -29 56 -27 2 3 -18 17 -44 32 -107 62 -108 64 -111
157 -4 89 -12 121 -12 46z"/>
<path d="M5190 5035 c-2 -38 -4 -78 -4 -88 -2 -21 -29 -44 -104 -88 -29 -17
-51 -33 -49 -36 3 -2 28 10 56 27 29 16 58 30 64 30 7 0 18 5 25 12 13 13 20
10 125 -44 73 -37 75 -28 2 13 -30 17 -55 34 -55 39 0 4 -9 10 -19 13 -15 4
-20 17 -25 68 -11 118 -13 124 -16 54z"/>
<path d="M6920 5035 c-2 -38 -3 -79 -3 -90 1 -21 -26 -43 -110 -91 -76 -44
-47 -39 38 6 87 46 73 47 188 -12 69 -35 76 -30 10 9 -26 15 -55 35 -64 44 -9
9 -22 18 -28 20 -6 2 -15 44 -20 94 l-8 90 -3 -70z"/>
<path d="M8077 5013 c-4 -49 -11 -89 -17 -91 -6 -2 -19 -12 -28 -21 -9 -10
-38 -30 -64 -45 -67 -38 -60 -43 10 -8 114 59 100 58 187 13 43 -23 79 -40 81
-39 1 2 -32 25 -75 52 l-76 49 -3 86 c-2 47 -5 87 -6 88 -2 2 -6 -36 -9 -84z"/>
<path d="M9230 5035 c-2 -38 -3 -79 -3 -90 1 -14 -21 -34 -77 -70 -43 -27 -77
-51 -76 -53 2 -1 38 16 81 39 87 45 73 46 188 -13 69 -35 76 -30 10 9 -26 15
-55 35 -64 44 -9 9 -22 18 -28 20 -6 2 -15 44 -20 94 l-8 90 -3 -70z"/>
<path d="M9811 5059 c-2 -94 -13 -141 -33 -147 -10 -2 -18 -8 -18 -12 0 -5
-25 -23 -55 -40 -75 -43 -70 -49 8 -9 101 51 103 52 123 41 137 -72 194 -92
92 -33 -98 57 -97 56 -107 156 -5 58 -9 74 -10 44z"/>
<path d="M10387 5013 c-4 -53 -11 -89 -18 -92 -6 -2 -19 -11 -28 -20 -9 -9
-38 -29 -64 -44 -66 -39 -59 -44 11 -9 114 59 100 58 187 12 85 -45 114 -50
38 -6 -110 63 -108 60 -111 155 -2 47 -5 87 -6 88 -2 2 -6 -36 -9 -84z"/>
<path d="M11540 5035 c-2 -38 -3 -79 -3 -90 1 -14 -21 -34 -77 -70 -43 -27
-77 -51 -76 -53 2 -1 38 16 81 39 87 45 73 46 188 -13 69 -35 76 -30 10 8 -27
15 -56 35 -65 45 -9 9 -22 19 -27 20 -6 2 -15 45 -20 94 l-8 90 -3 -70z"/>
<path d="M12120 5058 c0 -86 -12 -140 -32 -146 -10 -2 -18 -8 -18 -12 0 -5
-25 -23 -55 -40 -75 -43 -70 -49 8 -9 101 51 103 52 123 41 11 -6 48 -24 84
-41 68 -33 66 -31 -32 34 l-61 40 -4 85 c-5 92 -13 121 -13 48z"/>
<path d="M2298 5029 c0 -35 0 -73 0 -84 2 -19 -4 -25 -95 -81 -63 -39 -59 -47
7 -14 99 51 99 51 118 42 9 -5 45 -23 80 -41 100 -52 80 -33 -64 59 -13 8 -23
24 -23 35 0 43 -10 137 -15 143 -3 3 -7 -24 -8 -59z"/>
<path d="M4037 5008 c-4 -48 -12 -85 -18 -87 -6 -2 -19 -11 -28 -20 -9 -9 -38
-29 -64 -44 -66 -39 -59 -44 11 -9 105 55 115 58 119 45 3 -7 12 -13 20 -13 9
0 40 -14 70 -31 30 -17 56 -29 59 -27 2 3 -17 17 -43 32 -111 63 -109 62 -112
150 -1 44 -3 81 -5 83 -2 2 -6 -34 -9 -79z"/>
<path d="M4610 5030 c-2 -36 -3 -74 -2 -85 1 -21 -23 -41 -111 -91 -26 -15
-45 -29 -43 -32 3 -2 29 10 59 27 30 17 61 31 70 31 8 0 17 6 20 13 4 13 14
10 120 -45 69 -35 76 -30 10 9 -26 15 -55 35 -64 44 -9 9 -21 18 -27 20 -6 2
-15 42 -20 89 l-9 85 -3 -65z"/>
<path d="M6350 5059 c0 -84 -12 -135 -35 -150 -94 -60 -125 -81 -125 -86 0 -2
26 9 58 25 105 55 115 58 119 45 3 -7 12 -13 20 -13 9 0 40 -14 70 -31 30 -17
56 -29 59 -27 2 3 -17 17 -43 32 -111 63 -109 62 -112 150 -2 78 -11 123 -11
55z"/>
<path d="M12697 5008 c-4 -48 -12 -85 -18 -87 -6 -2 -19 -11 -28 -20 -9 -9
-38 -29 -64 -44 -66 -39 -59 -44 11 -9 107 56 103 55 150 32 59 -29 64 -19 9
16 l-44 29 -2 79 c-1 44 -3 81 -5 83 -2 2 -6 -34 -9 -79z"/>
<path d="M10958 5024 c0 -32 0 -68 0 -79 2 -19 -4 -25 -95 -81 -63 -39 -59
-47 7 -14 99 51 99 51 118 42 9 -5 45 -23 80 -41 100 -52 80 -33 -64 59 -13 8
-23 24 -24 35 0 117 -19 183 -22 79z"/>
<path d="M8655 5047 c-4 -10 -5 -21 -1 -24 10 -10 18 4 13 24 -4 17 -4 17 -12
0z"/>
<path d="M8647 4976 c-3 -8 -4 -22 -1 -33 3 -12 -5 -24 -27 -38 -18 -11 -48
-29 -66 -41 -63 -39 -59 -47 7 -14 99 51 99 51 118 42 9 -5 46 -23 82 -42 66
-33 70 -25 7 14 -18 12 -48 30 -66 41 -22 14 -30 26 -27 38 5 22 -2 47 -14 47
-4 0 -10 -6 -13 -14z"/>
<path d="M860 4540 c-2 -41 -4 -83 -4 -93 -2 -21 -29 -44 -104 -88 -29 -17
-51 -33 -49 -36 3 -2 28 10 56 27 29 16 58 30 64 30 7 0 18 5 25 12 13 13 20
10 125 -44 73 -37 75 -28 2 13 -30 17 -55 34 -55 39 0 4 -9 10 -19 13 -15 4
-20 17 -25 68 -3 35 -8 80 -9 99 -2 19 -5 1 -7 -40z"/>
<path d="M7790 4563 c0 -91 -11 -145 -32 -151 -10 -2 -18 -8 -18 -12 0 -5 -25
-22 -55 -39 -73 -41 -71 -50 3 -13 104 54 111 57 124 44 7 -7 18 -12 25 -12 6
0 35 -14 64 -30 28 -17 53 -29 56 -27 2 3 -18 17 -44 32 -107 63 -108 63 -111
162 -4 96 -12 127 -12 46z"/>
<path d="M9520 4540 c-2 -41 -4 -83 -4 -93 -2 -21 -29 -44 -104 -88 -29 -17
-51 -33 -49 -36 3 -2 28 10 56 27 29 16 58 30 64 30 7 0 18 5 25 12 13 13 20
10 125 -44 73 -37 75 -28 2 13 -30 17 -55 34 -55 39 0 4 -9 10 -19 13 -15 4
-20 17 -25 68 -3 35 -8 80 -9 99 -2 19 -5 1 -7 -40z"/>
<path d="M12407 4518 c-3 -54 -11 -94 -17 -96 -6 -2 -19 -12 -28 -21 -9 -10
-38 -30 -64 -45 -67 -38 -60 -43 10 -8 114 59 100 58 187 13 43 -23 79 -40 81
-39 1 2 -32 25 -75 52 l-77 49 -2 91 c-2 50 -5 92 -6 93 -2 2 -6 -38 -9 -89z"/>
<path d="M1437 4513 c-4 -49 -11 -89 -17 -91 -6 -2 -19 -12 -28 -21 -9 -10
-38 -30 -64 -45 -67 -38 -60 -43 10 -8 114 59 100 58 187 13 43 -23 79 -40 81
-38 2 1 -32 25 -74 52 l-77 49 -3 85 c-2 47 -5 87 -6 88 -2 2 -6 -36 -9 -84z"/>
<path d="M2590 4535 c-2 -38 -3 -79 -3 -90 1 -21 -26 -43 -110 -91 -76 -44
-47 -39 38 6 87 46 73 47 188 -12 69 -35 76 -30 10 9 -26 15 -55 35 -64 44 -9
9 -22 18 -28 20 -6 2 -15 44 -20 94 l-8 90 -3 -70z"/>
<path d="M3171 4559 c0 -25 -4 -67 -7 -93 -6 -43 -11 -49 -65 -84 -94 -60 -97
-64 -29 -31 108 52 106 52 126 41 137 -72 196 -93 89 -32 -30 17 -55 35 -55
40 0 4 -9 10 -19 13 -15 4 -20 17 -25 68 -11 115 -13 127 -15 78z"/>
<path d="M3747 4513 c-4 -49 -11 -89 -17 -91 -6 -2 -19 -12 -28 -21 -9 -10
-38 -30 -64 -45 -67 -38 -60 -43 10 -8 114 59 100 58 187 13 43 -23 79 -40 81
-39 1 2 -32 25 -75 52 l-76 49 -3 86 c-2 47 -5 87 -6 88 -2 2 -6 -36 -9 -84z"/>
<path d="M4900 4535 c-2 -38 -3 -79 -3 -90 1 -14 -21 -34 -77 -70 -43 -27 -77
-51 -76 -53 2 -1 38 16 81 39 87 45 73 46 188 -13 69 -35 76 -30 10 8 -27 15
-56 35 -65 45 -9 9 -22 19 -27 20 -6 2 -15 45 -20 94 l-8 90 -3 -70z"/>
<path d="M5481 4559 c0 -25 -4 -67 -7 -93 -6 -43 -11 -49 -65 -84 -94 -60 -97
-64 -29 -31 108 52 106 52 126 41 137 -72 196 -93 89 -32 -30 17 -55 35 -55
40 0 4 -9 10 -19 13 -15 4 -20 17 -25 68 -11 115 -13 127 -15 78z"/>
<path d="M6057 4513 c-4 -53 -11 -89 -18 -92 -6 -2 -19 -11 -28 -20 -9 -9 -38
-29 -64 -44 -66 -39 -59 -44 11 -9 114 59 100 58 187 12 85 -45 114 -50 38 -6
-110 63 -108 60 -111 155 -2 47 -5 87 -6 88 -2 2 -6 -36 -9 -84z"/>
<path d="M7210 4535 c-2 -38 -3 -79 -3 -90 1 -14 -21 -34 -77 -70 -43 -27 -77
-51 -76 -53 2 -1 38 16 81 39 87 45 73 46 188 -13 69 -35 76 -30 10 8 -27 15
-56 35 -65 45 -9 9 -22 19 -27 20 -6 2 -15 45 -20 94 l-8 90 -3 -70z"/>
<path d="M8366 4513 c-4 -49 -11 -90 -17 -92 -7 -2 -19 -11 -28 -20 -9 -9 -38
-29 -64 -44 -66 -39 -59 -44 11 -9 105 55 115 58 119 45 3 -7 12 -13 20 -13 9
0 40 -14 70 -31 30 -17 56 -29 59 -27 2 3 -17 17 -43 32 -112 64 -109 61 -112
156 -1 46 -3 85 -5 87 -2 2 -6 -36 -10 -84z"/>
<path d="M10097 4513 c-4 -49 -11 -89 -17 -91 -6 -2 -19 -12 -28 -21 -9 -10
-38 -30 -64 -45 -67 -38 -60 -43 10 -8 104 54 111 57 124 44 7 -7 18 -12 25
-12 6 0 35 -14 64 -30 80 -48 67 -30 -19 25 l-77 49 -3 85 c-2 47 -5 87 -6 88
-2 2 -6 -36 -9 -84z"/>
<path d="M11830 4540 c-2 -36 -4 -76 -5 -90 0 -18 -16 -34 -62 -65 -99 -65
-101 -67 -33 -34 108 52 106 52 126 41 11 -5 47 -23 82 -41 77 -40 82 -34 7 9
-30 17 -55 35 -55 40 0 4 -9 10 -19 13 -15 4 -20 17 -25 68 -11 117 -13 124
-16 59z"/>
<path d="M280 4530 c-2 -36 -3 -74 -2 -85 1 -21 -23 -41 -111 -91 -26 -15 -45
-29 -43 -32 3 -2 29 10 59 27 30 17 61 31 70 31 8 0 17 6 20 13 4 13 14 10
120 -45 69 -35 76 -30 10 9 -26 15 -55 35 -64 44 -9 9 -21 18 -27 20 -6 2 -15
42 -20 89 l-9 85 -3 -65z"/>
<path d="M8938 4529 c0 -35 0 -73 0 -84 2 -19 -4 -25 -95 -81 -59 -37 -60 -48
-2 -16 31 18 63 32 72 32 8 0 17 6 20 13 4 13 14 10 120 -45 64 -33 76 -31 20
3 -21 12 -50 33 -65 45 -15 12 -32 24 -37 26 -6 1 -13 39 -16 83 -3 44 -8 82
-11 84 -2 2 -5 -25 -6 -60z"/>
<path d="M11250 4530 c-2 -36 -3 -74 -2 -85 1 -21 -23 -41 -111 -91 -26 -15
-45 -29 -43 -32 3 -2 29 10 59 27 30 17 61 31 70 31 8 0 17 6 20 13 4 13 14
10 120 -45 69 -35 76 -30 10 9 -26 15 -55 35 -64 44 -9 9 -21 18 -28 20 -6 2
-15 42 -19 89 l-9 85 -3 -65z"/>
<path d="M4327 4573 c-11 -10 -8 -63 3 -63 6 0 10 16 10 35 0 36 -2 40 -13 28z"/>
<path d="M10676 4523 c-4 -32 -7 -67 -7 -78 0 -11 -10 -27 -23 -35 -90 -58
-126 -82 -126 -87 0 -2 26 9 58 25 105 55 115 58 119 45 3 -7 12 -13 20 -13 9
0 40 -14 70 -31 30 -17 56 -29 59 -27 2 3 -17 17 -43 32 -110 63 -109 63 -112
145 -1 41 -3 76 -5 78 -2 2 -6 -22 -10 -54z"/>
<path d="M2022 4540 c0 -19 2 -27 5 -17 2 9 2 25 0 35 -3 9 -5 1 -5 -18z"/>
<path d="M6632 4540 c0 -19 2 -27 5 -17 2 9 2 25 0 35 -3 9 -5 1 -5 -18z"/>
<path d="M2009 4473 c-1 -10 -1 -25 0 -33 1 -8 -9 -22 -22 -30 -81 -51 -127
-82 -127 -87 0 -2 26 9 58 25 105 55 115 58 119 45 3 -7 12 -13 20 -13 9 0 41
-14 72 -32 58 -32 57 -21 -2 16 -18 12 -48 30 -66 41 -22 14 -30 26 -27 38 5
22 -2 47 -15 47 -5 0 -10 -8 -10 -17z"/>
<path d="M4319 4473 c-1 -10 -1 -25 0 -33 1 -8 -13 -24 -31 -35 -17 -11 -47
-29 -65 -41 -63 -39 -59 -47 7 -14 99 51 99 51 118 42 9 -5 46 -23 82 -42 66
-33 70 -25 7 14 -18 12 -48 30 -66 41 -22 14 -30 26 -27 38 5 22 -2 47 -15 47
-5 0 -10 -8 -10 -17z"/>
<path d="M6627 4476 c-3 -8 -4 -22 -1 -33 3 -12 -5 -24 -27 -38 -18 -11 -48
-29 -66 -41 -63 -39 -59 -47 7 -14 99 51 99 51 118 42 9 -5 46 -24 82 -42 66
-33 70 -25 7 14 -18 12 -48 30 -65 41 -18 11 -32 27 -31 35 4 46 -12 69 -24
36z"/>
<path d="M1151 4064 c-2 -98 -13 -146 -33 -152 -10 -2 -18 -8 -18 -12 0 -5
-25 -23 -55 -40 -75 -43 -70 -49 8 -9 101 51 103 52 123 41 137 -72 194 -92
92 -33 -99 57 -97 56 -107 161 -6 66 -9 80 -10 44z"/>
<path d="M2880 4040 c-2 -41 -3 -84 -3 -95 1 -14 -21 -34 -77 -70 -85 -55
-102 -77 -20 -26 28 17 56 31 63 31 7 0 18 5 25 12 13 13 20 10 125 -44 69
-35 76 -30 10 8 -27 15 -56 35 -65 45 -9 9 -22 19 -28 21 -6 2 -14 46 -19 98
l-8 95 -3 -75z"/>
<path d="M5770 4063 c0 -91 -11 -145 -32 -151 -10 -2 -18 -8 -18 -12 0 -5 -25
-22 -55 -39 -73 -41 -71 -50 3 -13 104 54 111 57 124 44 7 -7 18 -12 25 -12 6
0 35 -14 64 -30 80 -48 67 -30 -19 25 l-78 49 -2 90 c-3 97 -12 133 -12 49z"/>
<path d="M7500 4045 c-2 -38 -4 -81 -5 -95 0 -18 -16 -34 -62 -65 -99 -65
-101 -67 -33 -34 108 52 106 52 126 41 11 -5 47 -23 82 -41 77 -40 82 -34 7 9
-30 17 -55 35 -55 40 0 4 -9 10 -19 13 -15 4 -20 17 -25 68 -3 35 -8 80 -9 99
-2 19 -5 4 -7 -35z"/>
<path d="M2 4001 c2 -81 6 -105 18 -111 8 -3 44 -21 80 -40 66 -33 70 -25 7
14 -102 64 -93 50 -96 145 -1 47 -4 87 -7 90 -2 3 -3 -41 -2 -98z"/>
<path d="M570 4035 c-2 -38 -3 -79 -3 -90 1 -14 -21 -34 -77 -70 -43 -27 -77
-51 -76 -53 2 -1 38 16 81 39 87 45 73 46 188 -13 69 -35 76 -30 10 8 -27 15
-56 35 -65 45 -9 9 -22 19 -27 20 -6 2 -15 45 -20 94 l-8 90 -3 -70z"/>
<path d="M1727 4013 c-4 -53 -11 -89 -18 -92 -6 -2 -19 -11 -28 -20 -9 -9 -38
-29 -64 -44 -66 -39 -59 -44 11 -9 114 59 100 58 187 12 85 -45 114 -50 38 -6
-110 63 -108 60 -111 155 -2 47 -5 87 -6 88 -2 2 -6 -36 -9 -84z"/>
<path d="M3460 4058 c0 -86 -12 -140 -32 -146 -10 -2 -18 -8 -18 -12 0 -5 -25
-22 -55 -39 -73 -41 -71 -50 3 -13 104 54 111 57 124 44 7 -7 18 -12 25 -12 6
0 35 -14 64 -30 28 -17 53 -29 56 -27 2 3 -18 17 -44 32 -107 62 -108 64 -111
157 -4 89 -12 121 -12 46z"/>
<path d="M5190 4035 c-2 -38 -4 -78 -4 -88 -2 -21 -29 -44 -104 -88 -29 -17
-51 -33 -49 -36 3 -2 28 10 56 27 29 16 58 30 64 30 7 0 18 5 25 12 13 13 20
10 125 -44 73 -37 75 -28 2 13 -30 17 -55 34 -55 39 0 4 -9 10 -19 13 -15 4
-20 17 -25 68 -11 118 -13 124 -16 54z"/>
<path d="M6920 4035 c-2 -38 -3 -79 -3 -90 1 -21 -26 -43 -110 -91 -76 -44
-47 -39 38 6 87 46 73 47 188 -12 69 -35 76 -30 10 9 -26 15 -55 35 -64 44 -9
9 -22 18 -28 20 -6 2 -15 44 -20 94 l-8 90 -3 -70z"/>
<path d="M8077 4013 c-4 -49 -11 -89 -17 -91 -6 -2 -19 -12 -28 -21 -9 -10
-38 -30 -64 -45 -67 -38 -60 -43 10 -8 114 59 100 58 187 13 43 -23 79 -40 81
-39 1 2 -32 25 -75 52 l-76 49 -3 86 c-2 47 -5 87 -6 88 -2 2 -6 -36 -9 -84z"/>
<path d="M9230 4035 c-2 -38 -3 -79 -3 -90 1 -14 -21 -34 -77 -70 -43 -27 -77
-51 -76 -53 2 -1 38 16 81 39 87 45 73 46 188 -13 69 -35 76 -30 10 9 -26 15
-55 35 -64 44 -9 9 -22 18 -28 20 -6 2 -15 44 -20 94 l-8 90 -3 -70z"/>
<path d="M9811 4059 c-2 -94 -13 -141 -33 -147 -10 -2 -18 -8 -18 -12 0 -5
-25 -23 -55 -40 -75 -43 -70 -49 8 -9 101 51 103 52 123 41 137 -72 194 -92
92 -33 -98 57 -97 56 -107 156 -5 58 -9 74 -10 44z"/>
<path d="M10387 4013 c-4 -53 -11 -89 -18 -92 -6 -2 -19 -11 -28 -20 -9 -9
-38 -29 -64 -44 -66 -39 -59 -44 11 -9 114 59 100 58 187 12 85 -45 114 -50
38 -6 -110 63 -108 60 -111 155 -2 47 -5 87 -6 88 -2 2 -6 -36 -9 -84z"/>
<path d="M11540 4035 c-2 -38 -3 -79 -3 -90 1 -14 -21 -34 -77 -70 -43 -27
-77 -51 -76 -53 2 -1 38 16 81 39 87 45 73 46 188 -13 69 -35 76 -30 10 8 -27
15 -56 35 -65 45 -9 9 -22 19 -27 20 -6 2 -15 45 -20 94 l-8 90 -3 -70z"/>
<path d="M12120 4058 c0 -86 -12 -140 -32 -146 -10 -2 -18 -8 -18 -12 0 -5
-25 -23 -55 -40 -75 -43 -70 -49 8 -9 101 51 103 52 123 41 11 -6 48 -24 84
-41 68 -33 66 -31 -32 34 l-61 40 -4 85 c-5 92 -13 121 -13 48z"/>
<path d="M2298 4029 c0 -35 0 -73 0 -84 2 -19 -4 -25 -95 -81 -63 -39 -59 -47
7 -14 99 51 99 51 118 42 9 -5 45 -23 80 -41 100 -52 80 -33 -64 59 -13 8 -23
24 -23 35 0 43 -10 137 -15 143 -3 3 -7 -24 -8 -59z"/>
<path d="M4037 4008 c-4 -48 -12 -85 -18 -87 -6 -2 -19 -11 -28 -20 -9 -9 -38
-29 -64 -44 -66 -39 -59 -44 11 -9 105 55 115 58 119 45 3 -7 12 -13 20 -13 9
0 40 -14 70 -31 30 -17 56 -29 59 -27 2 3 -17 17 -43 32 -111 63 -109 62 -112
150 -1 44 -3 81 -5 83 -2 2 -6 -34 -9 -79z"/>
<path d="M4610 4030 c-2 -36 -3 -74 -2 -85 1 -21 -23 -41 -111 -91 -26 -15
-45 -29 -43 -32 3 -2 29 10 59 27 30 17 61 31 70 31 8 0 17 6 20 13 4 13 14
10 120 -45 69 -35 76 -30 10 9 -26 15 -55 35 -64 44 -9 9 -21 18 -27 20 -6 2
-15 42 -20 89 l-9 85 -3 -65z"/>
<path d="M6350 4059 c0 -84 -12 -135 -35 -150 -94 -60 -125 -81 -125 -86 0 -2
26 9 58 25 105 55 115 58 119 45 3 -7 12 -13 20 -13 9 0 40 -14 70 -31 30 -17
56 -29 59 -27 2 3 -17 17 -43 32 -111 63 -109 62 -112 150 -2 78 -11 123 -11
55z"/>
<path d="M12697 4008 c-4 -48 -12 -85 -18 -87 -6 -2 -19 -11 -28 -20 -9 -9
-38 -29 -64 -44 -66 -39 -59 -44 11 -9 107 56 103 55 150 32 59 -29 64 -19 9
16 l-44 29 -2 79 c-1 44 -3 81 -5 83 -2 2 -6 -34 -9 -79z"/>
<path d="M10958 4024 c0 -32 0 -68 0 -79 2 -19 -4 -25 -95 -81 -63 -39 -59
-47 7 -14 99 51 99 51 118 42 9 -5 45 -23 80 -41 100 -52 80 -33 -64 59 -13 8
-23 24 -24 35 0 117 -19 183 -22 79z"/>
<path d="M8655 4047 c-4 -10 -5 -21 -1 -24 10 -10 18 4 13 24 -4 17 -4 17 -12
0z"/>
<path d="M8647 3976 c-3 -8 -4 -22 -1 -33 3 -12 -5 -24 -27 -38 -18 -11 -48
-29 -66 -41 -63 -39 -59 -47 7 -14 36 19 73 37 83 42 18 9 18 9 117 -42 66
-33 70 -25 7 14 -18 12 -48 30 -66 41 -22 14 -30 26 -27 38 5 22 -2 47 -14 47
-4 0 -10 -6 -13 -14z"/>
<path d="M860 3540 c-2 -41 -4 -83 -4 -93 -2 -21 -29 -44 -104 -88 -29 -17
-51 -33 -49 -36 3 -2 28 10 56 27 29 16 58 30 64 30 7 0 18 5 25 12 13 13 20
10 125 -44 73 -37 75 -28 2 13 -30 17 -55 34 -55 39 0 4 -9 10 -19 13 -15 4
-20 17 -25 68 -3 35 -8 80 -9 99 -2 19 -5 1 -7 -40z"/>
<path d="M7790 3563 c0 -91 -11 -145 -32 -151 -10 -2 -18 -8 -18 -12 0 -5 -25
-23 -55 -40 -72 -41 -71 -49 3 -12 104 54 111 57 124 44 7 -7 18 -12 25 -12 6
0 35 -14 64 -30 28 -17 53 -29 56 -27 2 3 -18 17 -44 32 -107 63 -108 63 -111
162 -4 96 -12 127 -12 46z"/>
<path d="M9520 3540 c-2 -41 -4 -83 -4 -93 -2 -21 -29 -44 -104 -88 -29 -17
-51 -33 -49 -36 3 -2 28 10 56 27 29 16 58 30 64 30 7 0 18 5 25 12 13 13 20
10 125 -44 73 -37 75 -28 2 13 -30 17 -55 34 -55 39 0 4 -9 10 -19 13 -15 4
-20 17 -25 68 -3 35 -8 80 -9 99 -2 19 -5 1 -7 -40z"/>
<path d="M12407 3518 c-3 -54 -11 -94 -17 -96 -6 -2 -19 -12 -28 -21 -9 -10
-38 -30 -64 -45 -67 -38 -60 -43 10 -8 114 59 100 58 187 13 43 -23 79 -40 81
-39 1 2 -32 25 -75 52 l-77 49 -2 91 c-2 50 -5 92 -6 93 -2 2 -6 -38 -9 -89z"/>
<path d="M1437 3513 c-4 -49 -11 -89 -17 -91 -6 -2 -19 -12 -28 -21 -9 -10
-38 -30 -64 -45 -67 -38 -60 -43 10 -8 114 59 100 58 187 13 43 -23 79 -40 81
-38 2 1 -32 25 -74 52 l-77 49 -3 85 c-2 47 -5 87 -6 88 -2 2 -6 -36 -9 -84z"/>
<path d="M2590 3535 c-2 -38 -3 -79 -3 -90 1 -21 -26 -43 -110 -91 -76 -44
-47 -39 38 6 87 46 73 47 188 -12 69 -35 76 -30 10 9 -26 15 -55 35 -64 44 -9
9 -22 18 -28 20 -6 2 -15 44 -20 94 l-8 90 -3 -70z"/>
<path d="M3171 3559 c0 -25 -4 -67 -7 -93 -6 -43 -11 -49 -65 -84 -94 -60 -97
-64 -29 -31 108 52 106 52 126 41 137 -72 196 -93 89 -32 -30 17 -55 35 -55
40 0 4 -9 10 -19 13 -15 4 -20 17 -25 68 -11 115 -13 127 -15 78z"/>
<path d="M3747 3513 c-4 -49 -11 -89 -17 -91 -6 -2 -19 -12 -28 -21 -9 -10
-38 -30 -64 -45 -67 -38 -60 -43 10 -8 114 59 100 58 187 13 43 -23 79 -40 81
-39 1 2 -32 25 -75 52 l-76 49 -3 86 c-2 47 -5 87 -6 88 -2 2 -6 -36 -9 -84z"/>
<path d="M4900 3535 c-2 -38 -3 -79 -3 -90 1 -14 -21 -34 -77 -70 -43 -27 -77
-51 -76 -53 2 -1 38 16 81 39 87 45 73 46 188 -13 69 -35 76 -30 10 8 -27 15
-56 35 -65 45 -9 9 -22 19 -27 20 -6 2 -15 45 -20 94 l-8 90 -3 -70z"/>
<path d="M5481 3559 c0 -25 -4 -67 -7 -93 -6 -43 -11 -49 -65 -84 -94 -60 -97
-64 -29 -31 108 52 106 52 126 41 137 -72 196 -93 89 -32 -30 17 -55 35 -55
40 0 4 -9 10 -19 13 -15 4 -20 17 -25 68 -11 115 -13 127 -15 78z"/>
<path d="M6057 3513 c-4 -53 -11 -89 -18 -92 -6 -2 -19 -11 -28 -20 -9 -9 -38
-29 -64 -44 -66 -39 -59 -44 11 -9 114 59 100 58 187 12 85 -45 114 -50 38 -6
-110 63 -108 60 -111 155 -2 47 -5 87 -6 88 -2 2 -6 -36 -9 -84z"/>
<path d="M7210 3535 c-2 -38 -3 -79 -3 -90 1 -14 -21 -34 -77 -70 -43 -27 -77
-51 -76 -53 2 -1 38 16 81 39 87 45 73 46 188 -13 69 -35 76 -30 10 8 -27 15
-56 35 -65 45 -9 9 -22 19 -27 20 -6 2 -15 45 -20 94 l-8 90 -3 -70z"/>
<path d="M8367 3513 c-4 -53 -11 -89 -18 -92 -6 -2 -19 -11 -28 -20 -9 -9 -38
-29 -64 -44 -66 -39 -59 -44 11 -9 105 55 115 58 119 45 3 -7 12 -13 20 -13 9
0 40 -14 70 -31 30 -17 56 -29 59 -27 2 3 -17 17 -43 32 -112 64 -109 61 -112
156 -1 46 -3 85 -5 87 -2 2 -6 -36 -9 -84z"/>
<path d="M10097 3513 c-4 -49 -11 -89 -17 -91 -6 -2 -19 -12 -28 -21 -9 -10
-38 -30 -64 -45 -67 -38 -60 -43 10 -8 104 54 111 57 124 44 7 -7 18 -12 25
-12 6 0 35 -14 64 -30 80 -48 67 -30 -19 25 l-77 49 -3 85 c-2 47 -5 87 -6 88
-2 2 -6 -36 -9 -84z"/>
<path d="M11830 3540 c-2 -36 -4 -76 -5 -90 0 -18 -16 -34 -62 -65 -99 -65
-101 -67 -33 -34 108 52 106 52 126 41 11 -5 47 -23 82 -41 77 -40 82 -34 7 9
-30 17 -55 35 -55 40 0 4 -9 10 -19 13 -15 4 -20 17 -25 68 -11 117 -13 124
-16 59z"/>
<path d="M280 3530 c-2 -36 -3 -74 -2 -85 1 -21 -23 -41 -111 -91 -26 -15 -45
-29 -43 -32 3 -2 29 10 59 27 30 17 61 31 70 31 8 0 17 6 20 13 4 13 14 10
120 -45 69 -35 76 -30 10 9 -26 15 -55 35 -64 44 -9 9 -21 18 -27 20 -6 2 -15
42 -20 89 l-9 85 -3 -65z"/>
<path d="M8938 3529 c0 -35 0 -73 0 -84 2 -19 -4 -25 -95 -81 -59 -37 -60 -48
-2 -16 31 18 63 32 72 32 8 0 17 6 20 13 4 13 14 10 120 -45 64 -33 76 -31 20
3 -21 12 -50 33 -65 45 -15 12 -32 24 -37 26 -6 1 -13 39 -16 83 -3 44 -8 82
-11 84 -2 2 -5 -25 -6 -60z"/>
<path d="M11250 3530 c-2 -36 -3 -74 -2 -85 1 -21 -23 -41 -111 -91 -26 -15
-45 -29 -43 -32 3 -2 29 10 59 27 30 17 61 31 70 31 8 0 17 6 20 13 4 13 14
10 120 -45 69 -35 76 -30 10 9 -26 15 -55 35 -64 44 -9 9 -21 18 -28 20 -6 2
-15 42 -19 89 l-9 85 -3 -65z"/>
<path d="M10676 3523 c-4 -32 -7 -67 -7 -78 0 -11 -10 -27 -23 -35 -90 -58
-126 -82 -126 -87 0 -2 26 9 58 25 105 55 115 58 119 45 3 -7 12 -13 20 -13 9
0 40 -14 70 -31 30 -17 56 -29 59 -27 2 3 -17 17 -43 32 -110 63 -109 63 -112
145 -1 41 -3 76 -5 78 -2 2 -6 -22 -10 -54z"/>
<path d="M2022 3540 c0 -19 2 -27 5 -17 2 9 2 25 0 35 -3 9 -5 1 -5 -18z"/>
<path d="M4320 3540 c0 -16 5 -30 10 -30 6 0 10 14 10 30 0 17 -4 30 -10 30
-5 0 -10 -13 -10 -30z"/>
<path d="M6632 3540 c0 -19 2 -27 5 -17 2 9 2 25 0 35 -3 9 -5 1 -5 -18z"/>
<path d="M2009 3473 c-1 -10 -1 -25 0 -33 1 -8 -9 -22 -22 -30 -81 -51 -127
-82 -127 -87 0 -2 26 9 58 25 105 55 115 58 119 45 3 -7 12 -13 20 -13 9 0 41
-14 72 -32 58 -32 57 -21 -2 16 -18 12 -48 30 -66 41 -22 14 -30 26 -27 38 5
22 -2 47 -15 47 -5 0 -10 -8 -10 -17z"/>
<path d="M4319 3473 c-1 -10 -1 -25 0 -33 1 -8 -13 -24 -31 -35 -17 -11 -47
-29 -65 -41 -63 -39 -59 -47 7 -14 36 19 73 37 83 42 18 9 18 9 117 -42 66
-33 70 -25 7 14 -18 12 -48 30 -66 41 -22 14 -30 26 -27 38 5 22 -2 47 -15 47
-5 0 -10 -8 -10 -17z"/>
<path d="M6627 3476 c-3 -8 -4 -22 -1 -33 3 -12 -5 -24 -27 -38 -18 -11 -48
-29 -66 -41 -63 -39 -59 -47 7 -14 99 51 99 51 118 42 9 -5 46 -24 82 -42 66
-33 70 -25 7 14 -18 12 -48 30 -65 41 -18 11 -32 27 -31 35 4 46 -12 69 -24
36z"/>
<path d="M1150 3063 c0 -91 -11 -145 -32 -151 -10 -2 -18 -8 -18 -12 0 -5 -25
-23 -55 -40 -75 -43 -70 -49 8 -9 101 51 103 52 123 41 11 -6 48 -24 84 -41
68 -33 66 -31 -33 34 l-60 40 -5 90 c-4 99 -12 128 -12 48z"/>
<path d="M2880 3040 c-2 -41 -3 -84 -3 -95 1 -14 -19 -32 -68 -64 -38 -24 -69
-45 -69 -48 0 -2 21 7 48 20 92 47 98 49 118 39 11 -5 47 -23 82 -41 73 -38
83 -34 15 5 -27 15 -56 35 -65 45 -9 9 -22 19 -28 21 -6 2 -14 46 -19 98 l-8
95 -3 -75z"/>
<path d="M5770 3063 c0 -91 -11 -145 -32 -151 -10 -2 -18 -8 -18 -12 0 -5 -25
-22 -55 -39 -73 -41 -71 -50 3 -13 104 54 111 57 124 44 7 -7 18 -12 25 -12 7
0 35 -14 63 -31 28 -17 53 -30 55 -27 2 2 -31 26 -73 53 l-78 49 -2 90 c-3 97
-12 133 -12 49z"/>
<path d="M7500 3045 c-2 -38 -4 -81 -5 -95 0 -18 -16 -35 -64 -67 -82 -54 -88
-62 -26 -31 98 49 101 50 121 40 137 -72 196 -93 89 -32 -30 17 -55 35 -55 40
0 4 -9 10 -19 13 -15 4 -20 17 -25 68 -3 35 -8 80 -9 99 -2 19 -5 4 -7 -35z"/>
<path d="M2 3001 c2 -81 6 -105 18 -111 8 -4 44 -22 80 -40 66 -33 70 -25 7
14 -102 64 -93 50 -96 145 -1 47 -4 87 -7 90 -2 3 -3 -41 -2 -98z"/>
<path d="M570 3035 c-2 -38 -3 -79 -3 -90 1 -14 -21 -34 -77 -70 -44 -27 -78
-51 -76 -52 2 -2 38 15 81 38 87 45 73 46 188 -13 69 -35 76 -30 10 8 -27 15
-56 35 -65 45 -9 9 -22 19 -27 20 -6 2 -15 45 -20 94 l-8 90 -3 -70z"/>
<path d="M1727 3013 c-4 -53 -11 -89 -18 -92 -6 -2 -19 -11 -28 -20 -9 -9 -38
-29 -64 -44 -66 -39 -59 -44 11 -9 114 59 100 58 187 13 43 -23 79 -40 81 -39
1 2 -32 25 -75 52 l-76 49 -3 86 c-2 47 -5 87 -6 88 -2 2 -6 -36 -9 -84z"/>
<path d="M3460 3058 c0 -86 -12 -140 -32 -146 -10 -2 -18 -8 -18 -12 0 -5 -25
-23 -55 -40 -75 -43 -70 -49 8 -9 101 51 103 52 123 41 73 -38 128 -64 123
-58 -4 4 -35 26 -70 49 l-63 42 -4 85 c-4 92 -12 122 -12 48z"/>
<path d="M5190 3035 c-2 -38 -3 -79 -3 -90 1 -14 -19 -32 -68 -64 -38 -24 -69
-45 -69 -48 0 -2 21 7 48 20 92 47 98 49 118 39 11 -5 47 -23 82 -41 77 -40
82 -33 7 10 -30 17 -55 34 -55 39 0 4 -9 10 -19 13 -15 4 -20 17 -25 68 -11
118 -13 124 -16 54z"/>
<path d="M6920 3035 c-2 -38 -3 -79 -3 -90 1 -21 -26 -43 -110 -91 -76 -44
-47 -39 38 6 87 46 73 47 188 -12 69 -35 76 -30 10 9 -26 15 -55 35 -64 44 -9
9 -22 18 -28 20 -6 2 -15 44 -20 94 l-8 90 -3 -70z"/>
<path d="M8080 3058 c0 -86 -12 -140 -32 -146 -10 -2 -18 -8 -18 -12 0 -5 -25
-22 -55 -39 -73 -41 -71 -50 3 -13 114 59 100 58 187 13 43 -23 79 -40 81 -39
1 2 -32 25 -75 52 l-76 49 -3 86 c-3 90 -12 126 -12 49z"/>
<path d="M9230 3035 c-2 -38 -3 -79 -3 -90 1 -21 -26 -43 -110 -91 -76 -44
-47 -39 38 6 87 46 73 47 188 -12 69 -35 76 -30 10 8 -27 15 -56 35 -65 45 -9
9 -22 19 -27 20 -6 2 -15 45 -20 94 l-8 90 -3 -70z"/>
<path d="M9811 3059 c0 -25 -4 -67 -7 -93 -6 -43 -11 -49 -65 -84 -94 -60 -97
-64 -29 -31 108 52 106 52 126 41 137 -72 194 -92 92 -33 -98 57 -97 56 -107
156 -5 58 -9 74 -10 44z"/>
<path d="M10387 3013 c-4 -53 -11 -89 -18 -92 -6 -2 -19 -11 -28 -20 -9 -9
-38 -29 -64 -44 -66 -39 -59 -44 11 -9 114 59 100 58 187 12 85 -45 114 -50
38 -6 -110 63 -108 60 -111 155 -2 47 -5 87 -6 88 -2 2 -6 -36 -9 -84z"/>
<path d="M11540 3035 c-2 -38 -3 -79 -3 -90 1 -14 -21 -34 -77 -70 -43 -27
-77 -51 -76 -53 2 -1 38 16 81 39 87 45 73 46 188 -13 73 -37 75 -28 2 13 -30
17 -55 34 -55 39 0 4 -9 10 -19 13 -15 4 -20 17 -25 68 -11 118 -13 124 -16
54z"/>
<path d="M12120 3058 c0 -86 -12 -140 -32 -146 -10 -2 -18 -8 -18 -12 0 -5
-25 -23 -55 -40 -75 -43 -70 -49 8 -9 101 51 103 52 123 41 73 -38 128 -64
123 -58 -4 4 -35 26 -69 49 l-63 42 -4 85 c-5 92 -13 121 -13 48z"/>
<path d="M2298 3029 c0 -35 0 -73 0 -84 2 -19 -4 -25 -95 -81 -59 -37 -60 -48
-2 -16 31 18 63 32 72 32 8 0 17 6 20 13 4 13 11 11 122 -45 61 -32 63 -22 2
16 -87 54 -96 62 -96 81 0 43 -10 137 -15 143 -3 3 -7 -24 -8 -59z"/>
<path d="M4037 3008 c-4 -48 -12 -85 -18 -87 -6 -2 -19 -11 -28 -20 -9 -9 -38
-29 -64 -44 -66 -39 -59 -44 11 -9 105 55 115 58 119 45 3 -7 12 -13 20 -13 9
0 41 -14 72 -32 58 -32 57 -21 -2 16 -102 63 -93 51 -96 140 -1 44 -3 81 -5
83 -2 2 -6 -34 -9 -79z"/>
<path d="M4610 3030 c-2 -36 -2 -74 -2 -85 2 -19 -4 -25 -95 -81 -59 -37 -60
-48 -2 -16 31 18 63 32 72 32 8 0 17 6 20 13 4 13 14 10 120 -45 69 -35 76
-30 10 9 -26 15 -55 35 -64 44 -9 9 -21 18 -27 20 -6 2 -15 42 -20 89 l-9 85
-3 -65z"/>
<path d="M6346 3008 c-4 -46 -12 -85 -18 -87 -6 -2 -18 -11 -27 -20 -9 -9 -38
-29 -64 -44 -66 -39 -59 -44 11 -9 105 55 115 58 119 45 3 -7 12 -13 20 -13 9
0 41 -14 72 -32 58 -32 57 -21 -2 16 -102 63 -93 51 -96 140 -1 44 -3 81 -5
83 -2 2 -6 -34 -10 -79z"/>
<path d="M12696 3008 c-4 -46 -12 -85 -18 -87 -6 -2 -18 -11 -27 -20 -9 -9
-38 -29 -64 -44 -66 -39 -59 -44 11 -9 107 56 103 55 150 32 59 -29 64 -19 9
16 l-44 29 -2 79 c-1 44 -3 81 -5 83 -2 2 -6 -34 -10 -79z"/>
<path d="M10958 3024 c0 -32 0 -68 0 -79 2 -19 -4 -25 -95 -81 -63 -39 -59
-47 7 -14 99 51 99 51 118 42 9 -5 45 -23 80 -41 100 -52 80 -33 -64 59 -13 8
-23 24 -24 35 0 117 -19 183 -22 79z"/>
<path d="M8655 3047 c-4 -10 -5 -21 -1 -24 10 -10 18 4 13 24 -4 17 -4 17 -12
0z"/>
<path d="M8647 2976 c-3 -8 -4 -22 -1 -33 3 -12 -5 -24 -27 -38 -18 -11 -48
-29 -66 -41 -63 -39 -59 -47 7 -14 36 18 73 37 83 42 9 4 25 4 35 0 9 -5 46
-24 82 -42 66 -33 70 -25 7 14 -18 12 -48 30 -66 41 -22 14 -30 26 -27 38 5
22 -2 47 -14 47 -4 0 -10 -6 -13 -14z"/>
<path d="M860 2545 c-2 -38 -4 -81 -5 -95 0 -18 -16 -35 -64 -67 -82 -54 -88
-62 -26 -31 97 49 101 50 121 40 11 -5 47 -23 82 -41 73 -38 83 -34 15 5 -27
15 -56 35 -65 45 -9 9 -22 19 -28 21 -6 2 -14 46 -19 98 l-8 95 -3 -70z"/>
<path d="M7790 2563 c0 -91 -11 -145 -32 -151 -10 -2 -18 -8 -18 -12 0 -5 -25
-23 -55 -40 -72 -41 -71 -49 3 -12 100 52 108 55 128 44 73 -38 128 -64 123
-58 -4 4 -35 26 -70 49 l-63 43 -4 89 c-4 98 -12 129 -12 48z"/>
<path d="M9520 2540 c-2 -41 -3 -84 -3 -95 1 -14 -21 -34 -77 -70 -87 -55
-102 -73 -21 -25 29 16 58 30 64 30 7 0 18 5 25 12 13 13 20 10 125 -44 73
-37 74 -29 2 12 -30 17 -55 35 -55 40 0 4 -9 10 -19 13 -15 4 -20 17 -25 68
-3 35 -8 80 -9 99 -2 19 -5 1 -7 -40z"/>
<path d="M12407 2518 c-3 -54 -11 -94 -17 -96 -6 -2 -19 -12 -28 -21 -9 -10
-38 -30 -64 -45 -67 -38 -60 -43 10 -8 114 59 100 58 187 13 43 -23 79 -40 81
-38 2 1 -32 25 -74 52 l-78 49 -2 90 c-2 50 -5 92 -6 93 -2 2 -6 -38 -9 -89z"/>
<path d="M280 2535 c-2 -38 -3 -79 -2 -90 1 -21 -23 -41 -111 -91 -26 -15 -45
-29 -43 -32 3 -2 29 10 59 27 30 17 61 31 70 31 8 0 17 6 20 13 4 13 14 10
120 -45 69 -35 76 -30 10 9 -26 15 -55 35 -64 44 -9 9 -21 18 -27 20 -6 2 -15
45 -20 94 l-9 90 -3 -70z"/>
<path d="M1437 2513 c-4 -49 -11 -89 -17 -91 -6 -2 -19 -12 -28 -21 -9 -10
-38 -30 -64 -45 -67 -38 -60 -43 10 -8 100 52 108 55 128 44 84 -44 124 -63
124 -59 0 3 -30 24 -68 48 l-67 43 -3 85 c-2 47 -5 87 -6 88 -2 2 -6 -36 -9
-84z"/>
<path d="M2590 2535 c-2 -38 -3 -79 -3 -90 1 -21 -26 -43 -110 -91 -76 -44
-47 -39 38 6 87 46 73 47 188 -12 69 -35 76 -30 10 9 -26 15 -55 35 -64 44 -9
9 -22 18 -28 20 -6 2 -15 44 -20 94 l-8 90 -3 -70z"/>
<path d="M3171 2559 c0 -25 -4 -67 -7 -93 -6 -44 -10 -49 -70 -88 -35 -22 -64
-43 -64 -45 0 -2 21 7 48 20 93 48 98 49 118 39 137 -72 196 -93 89 -32 -30
17 -55 35 -55 40 0 4 -9 10 -19 13 -15 4 -20 17 -25 68 -11 115 -13 127 -15
78z"/>
<path d="M3750 2558 c0 -86 -12 -140 -32 -146 -10 -2 -18 -8 -18 -12 0 -5 -25
-22 -55 -39 -73 -41 -71 -50 3 -13 114 59 100 58 187 13 43 -23 79 -40 81 -39
1 2 -32 25 -75 52 l-76 49 -3 86 c-3 90 -12 126 -12 49z"/>
<path d="M4900 2535 c-2 -38 -3 -79 -3 -90 1 -14 -21 -34 -77 -70 -43 -27 -77
-51 -75 -53 1 -2 38 15 80 38 87 46 73 47 188 -12 73 -37 75 -28 2 13 -30 17
-55 34 -55 39 0 4 -9 10 -19 13 -15 4 -20 17 -25 68 -11 118 -13 124 -16 54z"/>
<path d="M5481 2559 c0 -25 -4 -67 -7 -93 -6 -43 -11 -49 -65 -84 -94 -60 -97
-64 -29 -31 108 52 106 52 126 41 137 -72 194 -92 92 -33 -98 57 -97 56 -107
156 -5 58 -9 74 -10 44z"/>
<path d="M6057 2513 c-4 -53 -11 -89 -18 -92 -6 -2 -19 -11 -28 -20 -9 -9 -38
-29 -64 -44 -66 -39 -59 -44 11 -9 114 59 100 58 187 12 85 -45 114 -50 38 -6
-110 63 -108 60 -111 155 -2 47 -5 87 -6 88 -2 2 -6 -36 -9 -84z"/>
<path d="M7210 2535 c-2 -38 -3 -79 -3 -90 1 -14 -21 -34 -77 -70 -43 -27 -77
-51 -76 -53 2 -1 38 16 81 39 87 45 73 46 188 -13 73 -37 75 -28 2 13 -30 17
-55 34 -55 39 0 4 -9 10 -19 13 -15 4 -20 17 -25 68 -11 118 -13 124 -16 54z"/>
<path d="M8367 2513 c-4 -53 -11 -89 -18 -92 -6 -2 -19 -11 -28 -20 -9 -9 -38
-29 -64 -44 -66 -39 -59 -44 11 -9 105 55 115 58 119 45 3 -7 12 -13 20 -13 9
0 41 -14 72 -32 58 -32 57 -21 -2 16 -102 64 -93 50 -96 145 -1 47 -3 86 -5
88 -2 2 -6 -36 -9 -84z"/>
<path d="M10100 2558 c0 -86 -12 -140 -32 -146 -10 -2 -18 -8 -18 -12 0 -5
-25 -22 -55 -39 -73 -41 -71 -50 3 -13 104 54 111 57 124 44 7 -7 18 -12 25
-12 7 0 35 -14 63 -31 28 -17 53 -30 55 -27 2 2 -31 26 -73 53 l-77 49 -3 85
c-3 90 -12 126 -12 49z"/>
<path d="M11830 2540 c-2 -36 -4 -76 -5 -90 0 -18 -16 -34 -62 -65 -99 -65
-101 -67 -33 -34 108 52 106 52 126 41 82 -43 144 -72 144 -68 0 3 -25 20 -55
37 -30 17 -55 34 -55 39 0 4 -9 10 -19 13 -15 4 -20 17 -25 68 -11 117 -13
124 -16 59z"/>
<path d="M8938 2529 c0 -35 0 -73 0 -84 2 -19 -4 -25 -95 -81 -59 -37 -60 -48
-2 -16 31 18 63 32 72 32 8 0 17 6 20 13 4 13 14 10 120 -45 69 -35 76 -30 10
9 -26 15 -55 35 -64 44 -9 9 -21 18 -27 20 -6 2 -14 40 -17 84 -3 44 -8 82
-11 84 -2 2 -5 -25 -6 -60z"/>
<path d="M11250 2530 c-2 -36 -3 -74 -2 -85 1 -21 -23 -41 -111 -91 -76 -44
-47 -39 38 6 87 46 73 47 188 -12 69 -35 76 -30 10 9 -26 15 -55 35 -64 44 -9
9 -21 18 -27 20 -6 2 -15 42 -20 89 l-9 85 -3 -65z"/>
<path d="M10676 2523 c-4 -32 -7 -67 -7 -78 0 -11 -10 -27 -23 -35 -90 -58
-126 -82 -126 -87 0 -2 26 9 58 25 105 55 115 58 119 45 3 -7 12 -13 20 -13 9
0 40 -14 70 -31 30 -17 56 -29 59 -27 2 3 -17 17 -43 32 -110 63 -109 63 -112
145 -1 41 -3 76 -5 78 -2 2 -6 -22 -10 -54z"/>
<path d="M2022 2540 c0 -19 2 -27 5 -17 2 9 2 25 0 35 -3 9 -5 1 -5 -18z"/>
<path d="M4320 2540 c0 -16 5 -30 10 -30 6 0 10 14 10 30 0 17 -4 30 -10 30
-5 0 -10 -13 -10 -30z"/>
<path d="M6632 2540 c0 -19 2 -27 5 -17 2 9 2 25 0 35 -3 9 -5 1 -5 -18z"/>
<path d="M2009 2473 c-1 -10 -1 -25 0 -33 1 -8 -13 -24 -31 -35 -17 -11 -47
-29 -65 -41 -61 -38 -59 -48 2 -16 111 56 118 58 122 45 3 -7 12 -13 20 -13 9
0 41 -14 72 -32 58 -32 57 -21 -2 16 -18 12 -48 30 -66 41 -22 14 -30 26 -27
38 5 22 -2 47 -15 47 -5 0 -10 -8 -10 -17z"/>
<path d="M4319 2473 c-1 -10 -1 -25 0 -33 1 -8 -9 -22 -22 -30 -81 -51 -127
-82 -127 -87 0 -2 28 10 63 28 34 18 70 36 80 41 9 4 25 4 35 0 9 -5 46 -24
82 -42 66 -33 70 -25 7 14 -18 12 -48 30 -66 41 -22 14 -30 26 -27 38 5 22 -2
47 -15 47 -5 0 -10 -8 -10 -17z"/>
<path d="M6627 2476 c-3 -8 -4 -22 -1 -33 3 -12 -5 -24 -27 -38 -18 -11 -48
-29 -66 -41 -63 -39 -59 -47 7 -14 99 51 99 51 118 42 9 -5 45 -23 80 -41 100
-52 76 -30 -65 59 -13 8 -23 22 -22 30 4 46 -12 69 -24 36z"/>
<path d="M1150 2063 c0 -91 -11 -145 -32 -151 -10 -2 -18 -8 -18 -12 0 -5 -25
-23 -55 -40 -75 -43 -70 -49 8 -9 101 51 103 52 123 41 11 -6 48 -24 84 -41
68 -33 66 -31 -33 34 l-60 40 -5 90 c-4 99 -12 128 -12 48z"/>
<path d="M2880 2040 c-2 -41 -3 -84 -3 -95 1 -14 -21 -34 -77 -70 -43 -27 -77
-51 -76 -53 2 -1 38 16 81 39 87 45 73 46 188 -13 73 -37 75 -28 2 13 -30 17
-55 34 -55 39 0 4 -9 10 -19 13 -15 4 -20 17 -25 68 -3 35 -8 80 -9 99 -2 19
-5 1 -7 -40z"/>
<path d="M5770 2063 c0 -91 -11 -145 -32 -151 -10 -2 -18 -8 -18 -12 0 -5 -25
-22 -55 -39 -73 -41 -71 -50 3 -13 104 54 111 57 124 44 7 -7 18 -12 25 -12 7
0 35 -14 63 -31 28 -17 53 -30 55 -27 2 2 -31 26 -73 53 l-78 49 -2 90 c-3 97
-12 133 -12 49z"/>
<path d="M7500 2045 c-2 -38 -4 -81 -5 -95 0 -18 -16 -35 -64 -67 -82 -54 -88
-62 -26 -31 98 49 101 50 121 40 137 -72 196 -93 89 -32 -30 17 -55 35 -55 40
0 4 -9 10 -19 13 -15 4 -20 17 -25 68 -3 35 -8 80 -9 99 -2 19 -5 4 -7 -35z"/>
<path d="M2 2001 c2 -81 6 -105 18 -111 8 -4 44 -22 80 -40 66 -33 70 -25 7
14 -102 64 -93 50 -96 145 -1 47 -4 87 -7 90 -2 3 -3 -41 -2 -98z"/>
<path d="M570 2035 c-2 -38 -3 -79 -3 -90 1 -14 -21 -34 -77 -70 -44 -27 -78
-51 -76 -52 2 -2 38 15 81 38 87 45 73 46 188 -13 69 -35 76 -30 10 8 -27 15
-56 35 -65 45 -9 9 -22 19 -27 20 -6 2 -15 45 -20 94 l-8 90 -3 -70z"/>
<path d="M1727 2013 c-4 -53 -11 -89 -18 -92 -6 -2 -19 -11 -28 -20 -9 -9 -38
-29 -64 -44 -66 -39 -59 -44 11 -9 114 59 100 58 187 13 43 -23 79 -40 81 -39
1 2 -32 25 -75 52 l-76 49 -3 86 c-2 47 -5 87 -6 88 -2 2 -6 -36 -9 -84z"/>
<path d="M3460 2058 c0 -86 -12 -140 -32 -146 -10 -2 -18 -8 -18 -12 0 -5 -25
-23 -55 -40 -75 -43 -70 -49 8 -9 101 51 103 52 123 41 73 -38 128 -64 123
-58 -4 4 -35 26 -70 49 l-63 42 -4 85 c-4 92 -12 122 -12 48z"/>
<path d="M5190 2035 c-2 -38 -3 -79 -3 -90 1 -14 -19 -32 -68 -64 -38 -24 -69
-45 -69 -48 0 -2 21 7 48 20 92 47 98 49 118 39 11 -5 47 -23 82 -41 77 -40
82 -33 7 10 -30 17 -55 34 -55 39 0 4 -9 10 -19 13 -15 4 -20 17 -25 68 -11
118 -13 124 -16 54z"/>
<path d="M6920 2035 c-2 -38 -3 -79 -3 -90 1 -21 -26 -43 -110 -91 -76 -44
-47 -39 38 6 87 46 73 47 188 -12 69 -35 76 -30 10 9 -26 15 -55 35 -64 44 -9
9 -22 18 -28 20 -6 2 -15 44 -20 94 l-8 90 -3 -70z"/>
<path d="M8080 2058 c0 -86 -12 -140 -32 -146 -10 -2 -18 -8 -18 -12 0 -5 -25
-22 -55 -39 -73 -41 -71 -50 3 -13 114 59 100 58 187 13 43 -23 79 -40 81 -39
1 2 -32 25 -75 52 l-76 49 -3 86 c-3 90 -12 126 -12 49z"/>
<path d="M9230 2035 c-2 -38 -3 -79 -3 -90 1 -21 -26 -43 -110 -91 -76 -44
-47 -39 38 6 87 46 73 47 188 -12 69 -35 76 -30 10 8 -27 15 -56 35 -65 45 -9
9 -22 19 -27 20 -6 2 -15 45 -20 94 l-8 90 -3 -70z"/>
<path d="M9811 2059 c0 -25 -4 -67 -7 -93 -6 -43 -11 -49 -65 -84 -94 -60 -97
-64 -29 -31 108 52 106 52 126 41 137 -72 194 -92 92 -33 -98 57 -97 56 -107
156 -5 58 -9 74 -10 44z"/>
<path d="M10387 2013 c-4 -53 -11 -89 -18 -92 -6 -2 -19 -11 -28 -20 -9 -9
-38 -29 -64 -44 -66 -39 -59 -44 11 -9 114 59 100 58 187 12 85 -45 114 -50
38 -6 -110 63 -108 60 -111 155 -2 47 -5 87 -6 88 -2 2 -6 -36 -9 -84z"/>
<path d="M11540 2035 c-2 -38 -3 -79 -3 -90 1 -14 -21 -34 -77 -70 -43 -27
-77 -51 -76 -53 2 -1 38 16 81 39 87 45 73 46 188 -13 73 -37 75 -28 2 13 -30
17 -55 34 -55 39 0 4 -9 10 -19 13 -15 4 -20 17 -25 68 -11 118 -13 124 -16
54z"/>
<path d="M12120 2058 c0 -86 -12 -140 -32 -146 -10 -2 -18 -8 -18 -12 0 -5
-25 -23 -55 -40 -75 -43 -70 -49 8 -9 101 51 103 52 123 41 73 -38 128 -64
123 -58 -4 4 -35 26 -69 49 l-63 42 -4 85 c-5 92 -13 121 -13 48z"/>
<path d="M2298 2029 c0 -35 0 -73 0 -84 2 -19 -4 -25 -95 -81 -63 -39 -59 -47
7 -14 99 51 99 51 118 42 9 -5 45 -23 80 -41 100 -52 80 -33 -64 59 -13 8 -23
24 -23 35 0 43 -10 137 -15 143 -3 3 -7 -24 -8 -59z"/>
<path d="M4037 2008 c-4 -48 -12 -85 -18 -87 -6 -2 -19 -11 -28 -20 -9 -9 -38
-29 -64 -44 -66 -39 -59 -44 11 -9 105 55 115 58 119 45 3 -7 12 -13 20 -13 9
0 41 -14 72 -32 58 -32 57 -21 -2 16 -102 63 -93 51 -96 140 -1 44 -3 81 -5
83 -2 2 -6 -34 -9 -79z"/>
<path d="M4610 2030 c-2 -36 -2 -74 -2 -85 2 -19 -4 -25 -95 -81 -59 -37 -60
-48 -2 -16 31 18 63 32 72 32 8 0 17 6 20 13 4 13 14 10 120 -45 69 -35 76
-30 10 9 -26 15 -55 35 -64 44 -9 9 -21 18 -27 20 -6 2 -15 42 -20 89 l-9 85
-3 -65z"/>
<path d="M6346 2008 c-4 -46 -12 -85 -18 -87 -6 -2 -18 -11 -27 -20 -9 -9 -38
-29 -64 -44 -66 -39 -59 -44 11 -9 105 55 115 58 119 45 3 -7 12 -13 20 -13 9
0 41 -14 72 -32 58 -32 57 -21 -2 16 -102 63 -93 51 -96 140 -1 44 -3 81 -5
83 -2 2 -6 -34 -10 -79z"/>
<path d="M12696 2008 c-4 -46 -12 -85 -18 -87 -6 -2 -18 -11 -27 -20 -9 -9
-38 -29 -64 -44 -66 -39 -59 -44 11 -9 107 56 103 55 150 32 59 -29 64 -19 9
16 l-44 29 -2 79 c-1 44 -3 81 -5 83 -2 2 -6 -34 -10 -79z"/>
<path d="M10958 2024 c0 -32 0 -68 0 -79 2 -19 -4 -25 -95 -81 -63 -39 -59
-47 7 -14 99 51 99 51 118 42 9 -5 45 -23 80 -41 100 -52 80 -33 -64 59 -13 8
-23 24 -24 35 0 117 -19 183 -22 79z"/>
<path d="M8655 2047 c-4 -10 -5 -21 -1 -24 10 -10 18 4 13 24 -4 17 -4 17 -12
0z"/>
<path d="M8647 1976 c-3 -8 -4 -22 -1 -33 3 -12 -5 -24 -27 -38 -18 -11 -48
-29 -66 -41 -63 -39 -59 -47 7 -14 36 18 73 37 83 42 9 4 25 4 35 0 9 -5 46
-24 82 -42 66 -33 70 -25 7 14 -18 12 -48 30 -66 41 -22 14 -30 26 -27 38 5
22 -2 47 -14 47 -4 0 -10 -6 -13 -14z"/>
<path d="M860 1545 c-2 -38 -4 -81 -5 -95 0 -18 -16 -35 -64 -67 -82 -54 -88
-62 -26 -31 97 49 101 50 121 40 11 -5 47 -23 82 -41 73 -38 83 -34 15 5 -27
15 -56 35 -65 45 -9 9 -22 19 -28 21 -6 2 -14 46 -19 98 l-8 95 -3 -70z"/>
<path d="M7790 1563 c0 -91 -11 -145 -32 -151 -10 -2 -18 -8 -18 -12 0 -5 -25
-23 -55 -40 -72 -41 -71 -49 3 -12 100 52 108 55 128 44 73 -38 128 -64 123
-58 -4 4 -35 26 -70 49 l-63 43 -4 89 c-4 98 -12 129 -12 48z"/>
<path d="M9520 1540 c-2 -41 -3 -84 -3 -95 1 -14 -21 -34 -77 -70 -87 -55
-102 -73 -21 -25 29 16 58 30 64 30 7 0 18 5 25 12 13 13 20 10 125 -44 73
-37 74 -29 2 12 -30 17 -55 35 -55 40 0 4 -9 10 -19 13 -15 4 -20 17 -25 68
-3 35 -8 80 -9 99 -2 19 -5 1 -7 -40z"/>
<path d="M12407 1518 c-3 -54 -11 -94 -17 -96 -6 -2 -19 -12 -28 -21 -9 -10
-38 -30 -64 -45 -67 -38 -60 -43 10 -8 114 59 100 58 187 13 43 -23 79 -40 81
-38 2 1 -32 25 -74 52 l-78 49 -2 90 c-2 50 -5 92 -6 93 -2 2 -6 -38 -9 -89z"/>
<path d="M280 1535 c-2 -38 -3 -79 -2 -90 1 -21 -23 -41 -111 -91 -26 -15 -45
-29 -43 -32 3 -2 29 10 59 27 30 17 61 31 70 31 8 0 17 6 20 13 4 13 14 10
120 -45 69 -35 76 -30 10 9 -26 15 -55 35 -64 44 -9 9 -21 18 -27 20 -6 2 -15
45 -20 94 l-9 90 -3 -70z"/>
<path d="M1440 1558 c0 -86 -12 -140 -32 -146 -10 -2 -18 -8 -18 -12 0 -5 -25
-22 -55 -39 -73 -41 -71 -50 3 -13 104 54 111 57 124 44 7 -7 18 -12 25 -12 7
0 35 -14 63 -31 82 -50 66 -29 -19 25 l-76 49 -3 86 c-3 90 -12 126 -12 49z"/>
<path d="M2590 1535 c-2 -38 -3 -79 -3 -90 1 -21 -26 -43 -110 -91 -76 -44
-47 -39 38 6 87 46 73 47 188 -12 69 -35 76 -30 10 9 -26 15 -55 35 -64 44 -9
9 -22 18 -28 20 -6 2 -15 44 -20 94 l-8 90 -3 -70z"/>
<path d="M3171 1559 c0 -25 -4 -67 -7 -93 -6 -44 -10 -49 -70 -88 -35 -22 -64
-43 -64 -45 0 -2 21 7 48 20 93 48 98 49 118 39 137 -72 196 -93 89 -32 -30
17 -55 35 -55 40 0 4 -9 10 -19 13 -15 4 -20 17 -25 68 -11 115 -13 127 -15
78z"/>
<path d="M3750 1558 c0 -86 -12 -140 -32 -146 -10 -2 -18 -8 -18 -12 0 -5 -25
-22 -55 -39 -73 -41 -71 -50 3 -13 114 59 100 58 187 13 43 -23 79 -40 81 -39
1 2 -32 25 -75 52 l-76 49 -3 86 c-3 90 -12 126 -12 49z"/>
<path d="M4900 1535 c-2 -38 -3 -79 -3 -90 1 -14 -21 -34 -77 -70 -43 -27 -77
-51 -75 -53 1 -2 38 15 80 38 87 46 73 47 188 -12 73 -37 75 -28 2 13 -30 17
-55 34 -55 39 0 4 -9 10 -19 13 -15 4 -20 17 -25 68 -11 118 -13 124 -16 54z"/>
<path d="M5481 1559 c0 -25 -4 -67 -7 -93 -6 -43 -11 -49 -65 -84 -94 -60 -97
-64 -29 -31 108 52 106 52 126 41 137 -72 194 -92 92 -33 -98 57 -97 56 -107
156 -5 58 -9 74 -10 44z"/>
<path d="M6057 1513 c-4 -53 -11 -89 -18 -92 -6 -2 -19 -11 -28 -20 -9 -9 -38
-29 -64 -44 -66 -39 -59 -44 11 -9 114 59 100 58 187 12 85 -45 114 -50 38 -6
-110 63 -108 60 -111 155 -2 47 -5 87 -6 88 -2 2 -6 -36 -9 -84z"/>
<path d="M7210 1535 c-2 -38 -3 -79 -3 -90 1 -14 -21 -34 -77 -70 -43 -27 -77
-51 -76 -53 2 -1 38 16 81 39 87 45 73 46 188 -13 73 -37 75 -28 2 13 -30 17
-55 34 -55 39 0 4 -9 10 -19 13 -15 4 -20 17 -25 68 -11 118 -13 124 -16 54z"/>
<path d="M8367 1513 c-4 -53 -11 -89 -18 -92 -6 -2 -19 -11 -28 -20 -9 -9 -38
-29 -64 -44 -66 -39 -59 -44 11 -9 105 55 115 58 119 45 3 -7 12 -13 20 -13 9
0 41 -14 72 -32 58 -32 57 -21 -2 16 -102 64 -93 50 -96 145 -1 47 -3 86 -5
88 -2 2 -6 -36 -9 -84z"/>
<path d="M10100 1558 c0 -86 -12 -140 -32 -146 -10 -2 -18 -8 -18 -12 0 -5
-25 -22 -55 -39 -73 -41 -71 -50 3 -13 104 54 111 57 124 44 7 -7 18 -12 25
-12 7 0 35 -14 63 -31 28 -17 53 -30 55 -27 2 2 -31 26 -73 53 l-77 49 -3 85
c-3 90 -12 126 -12 49z"/>
<path d="M11830 1540 c-2 -36 -4 -76 -5 -90 0 -18 -16 -34 -62 -65 -99 -65
-101 -67 -33 -34 108 52 106 52 126 41 82 -43 144 -72 144 -68 0 3 -25 20 -55
37 -30 17 -55 34 -55 39 0 4 -9 10 -19 13 -15 4 -20 17 -25 68 -11 117 -13
124 -16 59z"/>
<path d="M8938 1529 c0 -35 0 -73 0 -84 2 -19 -4 -25 -95 -81 -59 -37 -60 -48
-2 -16 31 18 63 32 72 32 8 0 17 6 20 13 4 13 14 10 120 -45 69 -35 76 -30 10
9 -26 15 -55 35 -64 44 -9 9 -21 18 -27 20 -6 2 -14 40 -17 84 -3 44 -8 82
-11 84 -2 2 -5 -25 -6 -60z"/>
<path d="M11250 1530 c-2 -36 -2 -74 -2 -85 2 -19 -4 -25 -95 -81 -59 -37 -60
-48 -2 -16 31 18 63 32 72 32 8 0 17 6 20 13 4 13 14 10 120 -45 69 -35 76
-30 10 9 -26 15 -55 35 -64 44 -9 9 -21 18 -28 20 -6 2 -15 42 -19 89 l-9 85
-3 -65z"/>
<path d="M2023 1545 c0 -22 2 -30 4 -17 2 12 2 30 0 40 -3 9 -5 -1 -4 -23z"/>
<path d="M10676 1523 c-4 -32 -6 -68 -6 -80 0 -13 -5 -23 -10 -23 -6 0 -18 -8
-28 -18 -9 -9 -39 -30 -65 -45 -66 -39 -59 -44 11 -9 105 55 115 58 119 45 3
-7 12 -13 20 -13 9 0 41 -14 72 -32 58 -32 57 -21 -2 16 -101 63 -93 52 -96
135 -1 41 -3 76 -5 78 -2 2 -6 -22 -10 -54z"/>
<path d="M4320 1540 c0 -16 5 -30 10 -30 6 0 10 14 10 30 0 17 -4 30 -10 30
-5 0 -10 -13 -10 -30z"/>
<path d="M6632 1540 c0 -19 2 -27 5 -17 2 9 2 25 0 35 -3 9 -5 1 -5 -18z"/>
<path d="M2009 1473 c-1 -10 -1 -26 0 -35 1 -10 -3 -18 -8 -18 -6 0 -19 -8
-29 -18 -9 -9 -39 -30 -65 -45 -66 -39 -59 -44 11 -9 105 55 115 58 119 45 3
-7 12 -13 20 -13 9 0 41 -14 72 -32 58 -32 57 -21 -2 16 -18 12 -48 30 -66 41
-22 14 -30 26 -27 38 5 22 -2 47 -15 47 -5 0 -10 -8 -10 -17z"/>
<path d="M4319 1473 c-1 -10 -1 -25 0 -33 1 -8 -9 -22 -22 -30 -81 -51 -127
-82 -127 -87 0 -2 28 10 63 28 34 18 70 36 80 41 9 4 25 4 35 0 9 -5 46 -24
82 -42 66 -33 70 -25 7 14 -18 12 -48 30 -66 41 -22 14 -30 26 -27 38 5 22 -2
47 -15 47 -5 0 -10 -8 -10 -17z"/>
<path d="M6627 1476 c-3 -8 -4 -22 -1 -33 3 -12 -5 -24 -27 -38 -18 -11 -48
-29 -66 -41 -63 -39 -59 -47 7 -14 99 51 99 51 118 42 9 -5 45 -23 80 -41 100
-52 76 -30 -65 59 -13 8 -23 22 -22 30 4 46 -12 69 -24 36z"/>
<path d="M1152 1064 c-4 -99 -14 -146 -34 -152 -10 -2 -18 -8 -18 -12 0 -5
-25 -23 -55 -40 -75 -43 -70 -49 8 -9 101 51 103 52 123 41 83 -43 124 -63
124 -59 0 2 -29 23 -64 46 l-64 41 -6 63 c-13 135 -13 134 -14 81z"/>
<path d="M2880 1040 c-2 -41 -3 -84 -3 -95 1 -14 -21 -34 -77 -70 -43 -27 -77
-51 -76 -53 2 -1 38 16 81 39 87 45 73 46 188 -13 73 -37 75 -28 2 13 -30 17
-55 34 -55 39 0 4 -9 10 -19 13 -15 4 -20 17 -25 68 -3 35 -8 80 -9 99 -2 19
-5 1 -7 -40z"/>
<path d="M5770 1063 c0 -91 -11 -145 -32 -151 -10 -2 -18 -8 -18 -12 0 -5 -25
-22 -55 -39 -73 -41 -71 -50 3 -13 104 54 111 57 124 44 7 -7 18 -12 25 -12 7
0 35 -14 63 -31 28 -17 53 -30 55 -27 2 2 -31 26 -73 53 l-78 49 -2 90 c-3 97
-12 133 -12 49z"/>
<path d="M7500 1045 c-2 -38 -4 -81 -5 -95 0 -18 -16 -35 -64 -67 -82 -54 -88
-62 -26 -31 98 49 101 50 121 40 137 -72 196 -93 89 -32 -30 17 -55 35 -55 40
0 4 -9 10 -19 13 -15 4 -20 17 -25 68 -3 35 -8 80 -9 99 -2 19 -5 4 -7 -35z"/>
<path d="M2 1001 c2 -81 6 -105 18 -111 8 -4 44 -22 80 -40 66 -33 70 -25 7
14 -102 64 -93 50 -96 145 -1 47 -4 87 -7 90 -2 3 -3 -41 -2 -98z"/>
<path d="M570 1035 c-2 -38 -3 -79 -3 -90 1 -14 -21 -34 -77 -70 -44 -27 -78
-51 -76 -52 2 -2 38 15 81 38 87 45 73 46 188 -13 69 -35 76 -30 10 8 -27 15
-56 35 -65 45 -9 9 -22 19 -27 20 -6 2 -15 45 -20 94 l-8 90 -3 -70z"/>
<path d="M1727 1013 c-4 -53 -11 -89 -18 -92 -6 -2 -19 -11 -28 -20 -9 -9 -38
-29 -64 -44 -66 -39 -59 -44 11 -9 114 59 100 58 187 12 85 -45 114 -50 38 -6
-110 63 -108 60 -111 155 -2 47 -5 87 -6 88 -2 2 -6 -36 -9 -84z"/>
<path d="M3460 1058 c0 -86 -12 -140 -32 -146 -10 -2 -18 -8 -18 -12 0 -5 -25
-23 -55 -40 -75 -43 -70 -49 8 -9 101 51 103 52 123 41 73 -38 128 -64 123
-58 -4 4 -35 26 -70 49 l-63 42 -4 85 c-4 92 -12 122 -12 48z"/>
<path d="M5190 1035 c-2 -38 -3 -79 -3 -90 1 -14 -19 -32 -68 -64 -38 -24 -69
-45 -69 -48 0 -2 21 7 48 20 92 47 98 49 118 39 11 -5 47 -23 82 -41 77 -40
82 -33 7 10 -30 17 -55 34 -55 39 0 4 -9 10 -19 13 -15 4 -20 17 -25 68 -11
118 -13 124 -16 54z"/>
<path d="M6920 1035 c-2 -38 -3 -79 -3 -90 1 -21 -26 -43 -110 -91 -76 -44
-47 -39 38 6 87 46 73 47 188 -12 69 -35 76 -30 10 9 -26 15 -55 35 -64 44 -9
9 -22 18 -28 20 -6 2 -15 44 -20 94 l-8 90 -3 -70z"/>
<path d="M8080 1058 c0 -86 -12 -140 -32 -146 -10 -2 -18 -8 -18 -12 0 -5 -25
-22 -55 -39 -73 -41 -71 -50 3 -13 114 59 100 58 187 13 43 -23 79 -40 81 -39
1 2 -32 25 -75 52 l-76 49 -3 86 c-3 90 -12 126 -12 49z"/>
<path d="M9230 1035 c-2 -38 -3 -79 -3 -90 1 -21 -26 -43 -110 -91 -76 -44
-47 -39 38 6 87 46 73 47 188 -12 69 -35 76 -30 10 8 -27 15 -56 35 -65 45 -9
9 -22 19 -27 20 -6 2 -15 45 -20 94 l-8 90 -3 -70z"/>
<path d="M9811 1059 c0 -25 -4 -67 -7 -93 -6 -43 -11 -49 -65 -84 -94 -60 -97
-64 -29 -31 108 52 106 52 126 41 137 -72 194 -92 92 -33 -98 57 -97 56 -107
156 -5 58 -9 74 -10 44z"/>
<path d="M10387 1013 c-4 -53 -11 -89 -18 -92 -6 -2 -19 -11 -28 -20 -9 -9
-38 -29 -64 -44 -66 -39 -59 -44 11 -9 114 59 100 58 187 12 85 -45 114 -50
38 -6 -110 63 -108 60 -111 155 -2 47 -5 87 -6 88 -2 2 -6 -36 -9 -84z"/>
<path d="M11540 1035 c-2 -38 -3 -79 -3 -90 1 -14 -21 -34 -77 -70 -43 -27
-77 -51 -76 -53 2 -1 38 16 81 39 87 45 73 46 188 -13 73 -37 75 -28 2 13 -30
17 -55 34 -55 39 0 4 -9 10 -19 13 -15 4 -20 17 -25 68 -11 118 -13 124 -16
54z"/>
<path d="M12120 1058 c0 -86 -12 -140 -32 -146 -10 -2 -18 -8 -18 -12 0 -5
-25 -23 -55 -40 -75 -43 -70 -49 8 -9 101 51 103 52 123 41 73 -38 128 -64
123 -58 -4 4 -35 26 -69 49 l-63 42 -4 85 c-5 92 -13 121 -13 48z"/>
<path d="M2298 1029 c0 -35 0 -73 0 -84 2 -19 -4 -25 -95 -81 -63 -39 -59 -47
7 -14 99 51 99 51 118 42 9 -5 45 -23 80 -41 100 -52 80 -33 -64 59 -13 8 -23
24 -23 35 0 43 -10 137 -15 143 -3 3 -7 -24 -8 -59z"/>
<path d="M4037 1008 c-4 -48 -12 -85 -18 -87 -6 -2 -19 -11 -28 -20 -9 -9 -38
-29 -64 -44 -66 -39 -59 -44 11 -9 105 55 115 58 119 45 3 -7 12 -13 20 -13 9
0 41 -14 72 -32 58 -32 57 -21 -2 16 -102 63 -93 51 -96 140 -1 44 -3 81 -5
83 -2 2 -6 -34 -9 -79z"/>
<path d="M4610 1030 c-2 -36 -2 -74 -2 -85 2 -19 -4 -25 -95 -81 -59 -37 -60
-48 -2 -16 31 18 63 32 72 32 8 0 17 6 20 13 4 13 14 10 120 -45 69 -35 76
-30 10 9 -26 15 -55 35 -64 44 -9 9 -21 18 -27 20 -6 2 -15 42 -20 89 l-9 85
-3 -65z"/>
<path d="M6346 1008 c-4 -46 -12 -85 -18 -87 -6 -2 -18 -11 -27 -20 -9 -9 -38
-29 -64 -44 -66 -39 -59 -44 11 -9 105 55 115 58 119 45 3 -7 12 -13 20 -13 9
0 41 -14 72 -32 58 -32 57 -21 -2 16 -102 63 -93 51 -96 140 -1 44 -3 81 -5
83 -2 2 -6 -34 -10 -79z"/>
<path d="M12696 1008 c-4 -46 -12 -85 -18 -87 -6 -2 -18 -11 -27 -20 -9 -9
-38 -29 -64 -44 -66 -39 -59 -44 11 -9 107 56 103 55 150 32 59 -29 64 -19 9
16 l-44 29 -2 79 c-1 44 -3 81 -5 83 -2 2 -6 -34 -10 -79z"/>
<path d="M10958 1024 c0 -32 0 -68 0 -79 2 -19 -4 -25 -95 -81 -63 -39 -59
-47 7 -14 99 51 99 51 118 42 9 -5 45 -23 80 -41 100 -52 80 -33 -64 59 -13 8
-23 24 -24 35 0 117 -19 183 -22 79z"/>
<path d="M8655 1047 c-4 -10 -5 -21 -1 -24 10 -10 18 4 13 24 -4 17 -4 17 -12
0z"/>
<path d="M8647 976 c-3 -8 -4 -22 -1 -33 3 -12 -5 -24 -27 -38 -18 -11 -48
-29 -66 -41 -63 -39 -59 -47 7 -14 36 18 73 37 83 42 9 4 25 4 35 0 9 -5 46
-24 82 -42 66 -33 70 -25 7 14 -18 12 -48 30 -66 41 -22 14 -30 26 -27 38 5
22 -2 47 -14 47 -4 0 -10 -6 -13 -14z"/>
<path d="M860 540 c-2 -41 -3 -84 -3 -95 1 -14 -19 -32 -68 -64 -38 -24 -69
-45 -69 -48 0 -2 21 7 48 20 92 47 98 49 118 39 11 -5 47 -23 82 -41 77 -40
82 -34 7 9 -30 17 -55 35 -55 40 0 4 -9 10 -19 13 -15 4 -20 17 -25 68 -3 35
-8 80 -9 99 -2 19 -5 1 -7 -40z"/>
<path d="M7790 563 c0 -91 -11 -145 -32 -151 -10 -2 -18 -8 -18 -12 0 -5 -25
-23 -55 -40 -72 -41 -71 -49 3 -12 100 52 108 55 128 44 73 -38 128 -64 123
-58 -4 4 -35 26 -70 49 l-63 43 -4 89 c-4 98 -12 129 -12 48z"/>
<path d="M9520 540 c-2 -41 -3 -84 -3 -95 1 -14 -21 -34 -77 -70 -87 -55 -102
-73 -21 -25 29 16 58 30 64 30 7 0 18 5 25 12 13 13 20 10 125 -44 73 -37 74
-29 2 12 -30 17 -55 35 -55 40 0 4 -9 10 -19 13 -15 4 -20 17 -25 68 -3 35 -8
80 -9 99 -2 19 -5 1 -7 -40z"/>
<path d="M12410 563 c0 -91 -11 -145 -32 -151 -10 -2 -18 -8 -18 -12 0 -5 -25
-22 -55 -39 -73 -41 -71 -50 3 -13 114 59 100 58 187 13 43 -23 79 -40 81 -39
1 2 -32 25 -75 52 l-77 49 -2 91 c-3 97 -12 133 -12 49z"/>
<path d="M280 535 c-2 -38 -2 -79 -2 -90 2 -19 -4 -25 -95 -81 -59 -37 -60
-48 -2 -16 31 18 63 32 72 32 8 0 17 6 20 13 4 13 14 10 120 -45 69 -35 76
-30 10 9 -26 15 -55 35 -64 44 -9 9 -21 18 -27 20 -6 2 -15 45 -20 94 l-9 90
-3 -70z"/>
<path d="M1440 558 c0 -86 -12 -140 -32 -146 -10 -2 -18 -8 -18 -12 0 -5 -25
-22 -55 -39 -73 -41 -71 -50 3 -13 104 54 111 57 124 44 7 -7 18 -12 25 -12 7
0 35 -14 63 -31 82 -50 66 -29 -19 25 l-76 49 -3 86 c-3 90 -12 126 -12 49z"/>
<path d="M2590 535 c-2 -38 -3 -79 -3 -90 1 -21 -26 -43 -110 -91 -76 -44 -47
-39 38 6 87 46 73 47 188 -12 69 -35 76 -30 10 9 -26 15 -55 35 -64 44 -9 9
-22 18 -28 20 -6 2 -15 44 -20 94 l-8 90 -3 -70z"/>
<path d="M3171 559 c0 -25 -4 -67 -7 -93 -6 -44 -10 -49 -70 -88 -35 -22 -64
-43 -64 -45 0 -2 21 7 48 20 93 48 98 49 118 39 137 -72 196 -93 89 -32 -30
17 -55 35 -55 40 0 4 -9 10 -19 13 -15 4 -20 17 -25 68 -11 115 -13 127 -15
78z"/>
<path d="M3750 558 c0 -86 -12 -140 -32 -146 -10 -2 -18 -8 -18 -12 0 -5 -25
-22 -55 -39 -73 -41 -71 -50 3 -13 114 59 100 58 187 13 43 -23 79 -40 81 -39
1 2 -32 25 -75 52 l-76 49 -3 86 c-3 90 -12 126 -12 49z"/>
<path d="M4900 535 c-2 -38 -3 -79 -3 -90 1 -14 -21 -34 -77 -70 -43 -27 -77
-51 -75 -53 1 -2 38 15 80 38 87 46 73 47 188 -12 73 -37 75 -28 2 13 -30 17
-55 34 -55 39 0 4 -9 10 -19 13 -15 4 -20 17 -25 68 -11 118 -13 124 -16 54z"/>
<path d="M5481 559 c0 -25 -4 -67 -7 -93 -6 -43 -11 -49 -65 -84 -94 -60 -97
-64 -29 -31 108 52 106 52 126 41 137 -72 194 -92 92 -33 -98 57 -97 56 -107
156 -5 58 -9 74 -10 44z"/>
<path d="M6057 513 c-4 -53 -11 -89 -18 -92 -6 -2 -19 -11 -28 -20 -9 -9 -38
-29 -64 -44 -66 -39 -59 -44 11 -9 114 59 100 58 187 12 85 -45 114 -50 38 -6
-110 63 -108 60 -111 155 -2 47 -5 87 -6 88 -2 2 -6 -36 -9 -84z"/>
<path d="M7210 535 c-2 -38 -3 -79 -3 -90 1 -14 -21 -34 -77 -70 -43 -27 -77
-51 -76 -53 2 -1 38 16 81 39 87 45 73 46 188 -13 73 -37 75 -28 2 13 -30 17
-55 34 -55 39 0 4 -9 10 -19 13 -15 4 -20 17 -25 68 -11 118 -13 124 -16 54z"/>
<path d="M8367 513 c-4 -53 -11 -89 -18 -92 -6 -2 -19 -11 -28 -20 -9 -9 -38
-29 -64 -44 -66 -39 -59 -44 11 -9 105 55 115 58 119 45 3 -7 12 -13 20 -13 9
0 41 -14 72 -32 58 -32 57 -21 -2 16 -102 64 -93 50 -96 145 -1 47 -3 86 -5
88 -2 2 -6 -36 -9 -84z"/>
<path d="M10100 558 c0 -86 -12 -140 -32 -146 -10 -2 -18 -8 -18 -12 0 -5 -25
-22 -55 -39 -73 -41 -71 -50 3 -13 104 54 111 57 124 44 7 -7 18 -12 25 -12 7
0 35 -14 63 -31 28 -17 53 -30 55 -27 2 2 -31 26 -73 53 l-77 49 -3 85 c-3 90
-12 126 -12 49z"/>
<path d="M11830 540 c-2 -36 -4 -76 -5 -90 0 -18 -16 -35 -64 -67 -82 -54 -88
-62 -26 -31 98 49 101 50 121 40 137 -72 196 -93 89 -32 -30 17 -55 35 -55 40
0 4 -9 10 -19 13 -15 4 -20 17 -25 68 -11 117 -13 124 -16 59z"/>
<path d="M8938 529 c0 -35 0 -73 0 -84 2 -19 -4 -25 -95 -81 -59 -37 -60 -48
-2 -16 31 18 63 32 72 32 8 0 17 6 20 13 4 13 14 10 120 -45 69 -35 76 -30 10
9 -26 15 -55 35 -64 44 -9 9 -21 18 -27 20 -6 2 -14 40 -17 84 -3 44 -8 82
-11 84 -2 2 -5 -25 -6 -60z"/>
<path d="M11250 530 c-2 -36 -2 -74 -2 -85 2 -19 -4 -25 -95 -81 -59 -37 -60
-48 -2 -16 31 18 63 32 72 32 8 0 17 6 20 13 4 13 14 10 120 -45 69 -35 76
-30 10 9 -26 15 -55 35 -64 44 -9 9 -21 18 -28 20 -6 2 -15 42 -19 89 l-9 85
-3 -65z"/>
<path d="M2023 545 c0 -22 2 -30 4 -17 2 12 2 30 0 40 -3 9 -5 -1 -4 -23z"/>
<path d="M10676 523 c-4 -32 -6 -68 -6 -80 0 -13 -5 -23 -10 -23 -6 0 -18 -8
-28 -18 -9 -9 -39 -30 -65 -45 -66 -39 -59 -44 11 -9 105 55 115 58 119 45 3
-7 12 -13 20 -13 9 0 41 -14 72 -32 58 -32 57 -21 -2 16 -101 63 -93 52 -96
135 -1 41 -3 76 -5 78 -2 2 -6 -22 -10 -54z"/>
<path d="M4320 540 c0 -16 5 -30 10 -30 6 0 10 14 10 30 0 17 -4 30 -10 30 -5
0 -10 -13 -10 -30z"/>
<path d="M6632 540 c0 -19 2 -27 5 -17 2 9 2 25 0 35 -3 9 -5 1 -5 -18z"/>
<path d="M2009 473 c-1 -10 -1 -26 0 -35 1 -10 -3 -18 -8 -18 -6 0 -19 -8 -29
-18 -9 -9 -39 -30 -65 -45 -66 -39 -59 -44 11 -9 105 55 115 58 119 45 3 -7
12 -13 20 -13 9 0 41 -14 72 -32 58 -32 57 -21 -2 16 -18 12 -48 30 -66 41
-22 14 -30 26 -27 38 5 22 -2 47 -15 47 -5 0 -10 -8 -10 -17z"/>
<path d="M4319 473 c-1 -10 -1 -25 0 -33 1 -8 -9 -22 -22 -30 -81 -51 -127
-82 -127 -87 0 -2 28 10 63 28 34 18 70 36 80 41 9 4 25 4 35 0 9 -5 46 -24
82 -42 66 -33 70 -25 7 14 -18 12 -48 30 -66 41 -22 14 -30 26 -27 38 5 22 -2
47 -15 47 -5 0 -10 -8 -10 -17z"/>
<path d="M6627 476 c-3 -8 -4 -22 -1 -33 3 -12 -5 -24 -27 -38 -18 -11 -48
-29 -66 -41 -63 -39 -59 -47 7 -14 99 51 99 51 118 42 9 -5 45 -23 80 -41 100
-52 76 -30 -65 59 -13 8 -23 22 -22 30 4 46 -12 69 -24 36z"/>
<path d="M1153 55 c0 -33 2 -45 4 -27 2 18 2 45 0 60 -2 15 -4 0 -4 -33z"/>
<path d="M2883 55 c0 -33 2 -45 4 -27 2 18 2 45 0 60 -2 15 -4 0 -4 -33z"/>
<path d="M5773 55 c0 -33 2 -45 4 -27 2 18 2 45 0 60 -2 15 -4 0 -4 -33z"/>
<path d="M7503 55 c0 -33 2 -45 4 -27 2 18 2 45 0 60 -2 15 -4 0 -4 -33z"/>
<path d="M9813 55 c0 -33 2 -45 4 -27 2 18 2 45 0 60 -2 15 -4 0 -4 -33z"/>
<path d="M11543 55 c0 -33 2 -45 4 -27 2 18 2 45 0 60 -2 15 -4 0 -4 -33z"/>
<path d="M3 50 c0 -30 2 -43 4 -28 2 16 2 40 0 55 -2 16 -4 3 -4 -27z"/>
<path d="M573 50 c0 -30 2 -43 4 -28 2 16 2 40 0 55 -2 16 -4 3 -4 -27z"/>
<path d="M1733 50 c0 -30 2 -43 4 -28 2 16 2 40 0 55 -2 16 -4 3 -4 -27z"/>
<path d="M3463 50 c0 -30 2 -43 4 -28 2 16 2 40 0 55 -2 16 -4 3 -4 -27z"/>
<path d="M5193 50 c0 -30 2 -43 4 -28 2 16 2 40 0 55 -2 16 -4 3 -4 -27z"/>
<path d="M6923 50 c0 -30 2 -43 4 -28 2 16 2 40 0 55 -2 16 -4 3 -4 -27z"/>
<path d="M8083 50 c0 -30 2 -43 4 -28 2 16 2 40 0 55 -2 16 -4 3 -4 -27z"/>
<path d="M9233 50 c0 -30 2 -43 4 -28 2 16 2 40 0 55 -2 16 -4 3 -4 -27z"/>
<path d="M10393 50 c0 -30 2 -43 4 -28 2 16 2 40 0 55 -2 16 -4 3 -4 -27z"/>
<path d="M12123 50 c0 -30 2 -43 4 -28 2 16 2 40 0 55 -2 16 -4 3 -4 -27z"/>
<path d="M4043 45 c0 -27 2 -38 4 -22 2 15 2 37 0 50 -2 12 -4 0 -4 -28z"/>
<path d="M6346 66 c-3 -13 -2 -35 3 -48 8 -19 10 -15 10 25 1 52 -4 60 -13 23z"/>
<path d="M12703 45 c0 -27 2 -38 4 -22 2 15 2 37 0 50 -2 12 -4 0 -4 -28z"/>
<path d="M2301 40 c0 -40 2 -42 11 -22 8 16 8 28 0 45 -9 19 -11 17 -11 -23z"/>
<path d="M4613 40 c0 -25 2 -35 4 -22 2 12 2 32 0 45 -2 12 -4 2 -4 -23z"/>
<path d="M10960 40 c0 -25 4 -39 10 -35 6 3 10 19 10 35 0 16 -4 32 -10 35 -6
4 -10 -10 -10 -35z"/>
<path d="M8650 48 c0 -7 5 -20 10 -28 8 -12 10 -9 10 13 0 15 -4 27 -10 27 -5
0 -10 -6 -10 -12z"/>
</g>
</svg>
